{
.appVersion = "3257";
.formatVersion = 3;
customParameters = (
{
name = descriptions;
value = "";
},
{
name = licenses;
value = "This Font Software is licensed under the SIL Open Font License, Version 1.1. This license is available with a FAQ at: http://scripts.sil.org/OFL";
},
{
name = licenseURL;
value = "http://scripts.sil.org/OFL";
},
{
name = sampleTexts;
value = "";
},
{
name = uniqueID;
value = "EduardoTunni: Graduate: 2012";
},
{
name = versionString;
value = "Version 2.001";
},
{
name = codePageRanges;
value = (
"1252",
"1250",
"1254",
"1257",
"bit 29"
);
},
{
name = openTypeOS2FamilyClass;
value = (
0,
0
);
},
{
name = panose;
value = (
2,
0,
5,
3,
0,
0,
0,
2,
0,
4
);
},
{
name = unicodeRanges;
value = (
0,
1,
2,
3,
5,
7,
29,
31,
33,
35,
38,
45,
62
);
},
{
name = vendorID;
value = TIPO;
},
{
name = trademarks;
value = "Graduate is a trademark of Eduardo Tunni.";
},
{
name = year;
value = 2012;
}
);
date = "2024-04-25 09:41:36 +0000";
familyName = Graduate;
featurePrefixes = (
{
code = "languagesystem DFLT dflt;
languagesystem latn dflt; # Latin default
";
name = Languagesystems;
},
{
code = "#
# Feature definitions
#

###
# OpenType Layout feature definitions
# Format: Adobe FDK for OpenType (AFDKO) version 2.5
# Generated on: 2013-11-19 15:33
# Generated by: Fontlab
# Tool options: fea-inline-lookups: yes, fea-inline-classes: 0, fea-additional-tables: yes, fea-table-overrides: no
# Font path: /Users/etunni/Documents/TIPOGRAFIAS 2013/Graduate/Graduate-Regular-AL3.vfb
# Font PostScript name: Graduate-Regular
# Font copyright: Copyright (c) 2012, Eduardo Tunni (http://www.tipo.net.ar), with Reserved Font Name \"Graduate\"
#
# Totals:
# Languagesystems: 1
# GSUB lookups: 0
# GPOS lookups: 1
# GPOS features: 1 (kern)

#
# Languagesystem definitions
#

#
# Lookup definitions
#
feature kern {
# GPOS feature: Kerning
# Lookups: 1

  script latn; # Latin
    lookup kern_latn_1 {
    # GPOS lookup 1, type 2 (Pair adjustment)
      pos \\P \\J -30;

glyphs = (
{
glyphname = A;
layers = (
{
layerId = m001;
shapes = (
{
closed = 1;
nodes = (
(195,670,l),
(241,670,l),
(65,80,l),
(15,80,l),
(15,0,l),
(227,0,l),
(227,80,l),
(157,80,l),
(203,234,l),
(454,234,l),
(500,80,l),
(430,80,l),
(430,0,l),
(642,0,l),
(642,80,l),
(592,80,l),
(416,670,l),
(462,670,l),
(462,750,l),
(195,750,l,{
name = hr00;
})
);
},
{
closed = 1;
nodes = (
(430,314,l),
(227,314,l),
(328,655,l)
);
}
);
width = 657;
}
);
unicode = 65;
},
{
glyphname = Aacute;
layers = (
{
layerId = m001;
shapes = (
{
closed = 1;
nodes = (
(642,0,l),
(642,80,l),
(592,80,l),
(416,670,l),
(462,670,l),
(462,750,l),
(195,750,l),
(195,670,l),
(241,670,l),
(65,80,l),
(15,80,l),
(15,0,l),
(227,0,l),
(227,80,l),
(157,80,l),
(203,234,l),
(454,234,l),
(500,80,l),
(430,80,l),
(430,0,l)
);
},
{
closed = 1;
nodes = (
(430,314,l),
(227,314,l),
(328,655,l)
);
},
{
closed = 1;
nodes = (
(217,849,l),
(230,811,l,{
name = hr01;
}),
(362,811,l),
(440,843,l),
(411,926,l)
);
}
);
width = 657;
}
);
unicode = 193;
},
{
glyphname = Acircumflex;
layers = (
{
layerId = m001;
shapes = (
{
closed = 1;
nodes = (
(642,0,l),
(642,80,l),
(592,80,l),
(416,670,l),
(462,670,l),
(462,750,l),
(195,750,l),
(195,670,l),
(241,670,l),
(65,80,l),
(15,80,l),
(15,0,l),
(227,0,l),
(227,80,l),
(157,80,l),
(203,234,l),
(454,234,l),
(500,80,l),
(430,80,l),
(430,0,l,{
name = hr00;
})
);
},
{
closed = 1;
nodes = (
(430,314,l),
(227,314,l),
(328,655,l)
);
},
{
closed = 1;
nodes = (
(190,839,l),
(203,811,l),
(285,811,l),
(328,860,l),
(372,811,l),
(454,811,l),
(467,839,l),
(378,916,l),
(279,916,l)
);
}
);
width = 657;
}
);
unicode = 194;
},
{
glyphname = Adieresis;
layers = (
{
layerId = m001;
shapes = (
{
closed = 1;
nodes = (
(642,0,l),
(642,80,l),
(592,80,l),
(416,670,l),
(462,670,l),
(462,750,l),
(195,750,l),
(195,670,l),
(241,670,l),
(65,80,l),
(15,80,l),
(15,0,l),
(227,0,l),
(227,80,l),
(157,80,l),
(203,234,l),
(454,234,l),
(500,80,l),
(430,80,l),
(430,0,l,{
name = hr00;
})
);
},
{
closed = 1;
nodes = (
(430,314,l),
(227,314,l),
(328,655,l)
);
},
{
closed = 1;
nodes = (
(464,811,l),
(464,912,l),
(372,912,l),
(372,811,l)
);
},
{
closed = 1;
nodes = (
(285,811,l),
(285,912,l),
(193,912,l),
(193,811,l)
);
}
);
width = 657;
}
);
unicode = 196;
},
{
glyphname = Agrave;
layers = (
{
layerId = m001;
shapes = (
{
closed = 1;
nodes = (
(195,670,l),
(241,670,l),
(65,80,l),
(15,80,l),
(15,0,l),
(227,0,l),
(227,80,l),
(157,80,l),
(203,234,l),
(454,234,l),
(500,80,l),
(430,80,l),
(430,0,l),
(642,0,l),
(642,80,l),
(592,80,l),
(416,670,l),
(462,670,l),
(462,750,l),
(195,750,l)
);
},
{
closed = 1;
nodes = (
(430,314,l),
(227,314,l),
(328,655,l)
);
},
{
closed = 1;
nodes = (
(295,811,l,{
name = hr01;
}),
(427,811,l),
(440,849,l),
(246,926,l),
(217,843,l)
);
}
);
width = 657;
}
);
unicode = 192;
},
{
glyphname = Aring;
layers = (
{
layerId = m001;
shapes = (
{
closed = 1;
nodes = (
(195,750,l),
(195,670,l),
(241,670,l),
(65,80,l),
(15,80,l),
(15,0,l),
(227,0,l),
(227,80,l),
(157,80,l),
(203,234,l),
(454,234,l),
(500,80,l),
(430,80,l),
(430,0,l),
(642,0,l),
(642,80,l),
(592,80,l),
(416,670,l),
(462,670,l),
(462,750,l,{
name = hr00;
})
);
},
{
closed = 1;
nodes = (
(430,314,l),
(227,314,l),
(328,655,l)
);
},
{
closed = 1;
nodes = (
(372,801,l),
(407,838,l),
(407,916,l),
(372,953,l),
(285,953,l),
(250,916,l),
(250,838,l),
(285,801,l)
);
},
{
closed = 1;
nodes = (
(294,912,l),
(363,912,l),
(363,842,l),
(294,842,l)
);
}
);
width = 657;
}
);
unicode = 197;
},
{
glyphname = Atilde;
layers = (
{
layerId = m001;
shapes = (
{
closed = 1;
nodes = (
(642,0,l),
(642,80,l),
(592,80,l),
(416,670,l),
(462,670,l),
(462,750,l),
(195,750,l),
(195,670,l),
(241,670,l),
(65,80,l),
(15,80,l),
(15,0,l),
(227,0,l),
(227,80,l),
(157,80,l),
(203,234,l),
(454,234,l),
(500,80,l),
(430,80,l),
(430,0,l,{
name = hr00;
})
);
},
{
closed = 1;
nodes = (
(430,314,l),
(227,314,l),
(328,655,l)
);
},
{
closed = 1;
nodes = (
(477,888,l),
(464,916,l),
(392,916,l),
(360,888,l),
(303,916,l),
(277,916,l),
(199,839,l),
(212,811,l),
(284,811,l),
(316,839,l),
(373,811,l),
(399,811,l)
);
}
);
width = 657;
}
);
unicode = 195;
},
{
glyphname = AE;
layers = (
{
layerId = m001;
shapes = (
{
closed = 1;
nodes = (
(391,0,l),
(867,0,l),
(867,196,l),
(787,196,l),
(787,80,l),
(553,80,l),
(553,335,l),
(787,335,l),
(787,415,l),
(553,415,l),
(553,670,l),
(787,670,l),
(787,554,l),
(867,554,l),
(867,750,l),
(195,750,l),
(195,670,l),
(241,670,l),
(65,80,l),
(15,80,l),
(15,0,l),
(227,0,l),
(227,80,l),
(157,80,l),
(233,335,l),
(461,335,l),
(461,80,l),
(391,80,l,{
name = hr00;
})
);
},
{
closed = 1;
nodes = (
(461,670,l),
(461,415,l),
(257,415,l),
(333,670,l)
);
}
);
width = 947;
}
);
unicode = 198;
},
{
glyphname = B;
layers = (
{
layerId = m001;
shapes = (
{
closed = 1;
nodes = (
(80,670,l),
(150,670,l),
(150,80,l),
(80,80,l),
(80,0,l),
(500,0,l),
(604,110,l),
(604,326,l),
(530,403,l),
(584,460,l,{
name = hr01;
}),
(584,640,l),
(480,750,l),
(80,750,l)
);
},
{
closed = 1;
nodes = (
(242,86,l),
(242,356,l),
(455,356,l),
(518,291,l,{
name = hr02;
}),
(518,145,l),
(460,86,l)
);
},
{
closed = 1;
nodes = (
(242,436,l),
(242,664,l),
(441,664,l),
(498,605,l,{
name = hr03;
}),
(498,495,l),
(440,436,l)
);
}
);
width = 684;
}
);
unicode = 66;
},
{
glyphname = C;
layers = (
{
layerId = m001;
shapes = (
{
closed = 1;
nodes = (
(172,139,l),
(172,611,l),
(224,664,l),
(397,664,l),
(460,599,l),
(460,514,l),
(540,514,l),
(540,640,l),
(436,750,l),
(184,750,l),
(80,640,l),
(80,110,l),
(184,0,l),
(436,0,l),
(540,110,l),
(540,236,l),
(460,236,l),
(460,151,l),
(396,86,l),
(223,86,l,{
name = hr00;
})
);
}
);
width = 600;
}
);
unicode = 67;
},
{
glyphname = Ccedilla;
layers = (
{
layerId = m001;
shapes = (
{
closed = 1;
nodes = (
(240,-150,l),
(290,-150,l),
(360,0,l),
(436,0,l),
(540,110,l),
(540,236,l),
(460,236,l),
(460,151,l),
(396,86,l),
(223,86,l),
(172,139,l),
(172,611,l),
(224,664,l),
(397,664,l),
(460,599,l),
(460,514,l),
(540,514,l),
(540,640,l),
(436,750,l),
(184,750,l),
(80,640,l),
(80,110,l),
(184,0,l),
(260,0,l,{
name = hr00;
})
);
}
);
width = 600;
}
);
unicode = 199;
},
{
glyphname = D;
layers = (
{
layerId = m001;
shapes = (
{
closed = 1;
nodes = (
(80,670,l),
(150,670,l),
(150,80,l),
(80,80,l),
(80,0,l),
(506,0,l),
(610,110,l),
(610,640,l),
(506,750,l),
(80,750,l,{
name = hr00;
})
);
},
{
closed = 1;
nodes = (
(242,664,l),
(467,664,l),
(518,611,l),
(518,139,l),
(466,86,l),
(242,86,l)
);
}
);
width = 690;
}
);
unicode = 68;
},
{
glyphname = Eth;
layers = (
{
layerId = m001;
shapes = (
{
closed = 1;
nodes = (
(80,670,l),
(150,670,l),
(150,415,l),
(87,415,l),
(87,335,l),
(150,335,l),
(150,80,l),
(80,80,l),
(80,0,l),
(506,0,l),
(610,110,l),
(610,640,l),
(506,750,l),
(80,750,l,{
name = hr00;
})
);
},
{
closed = 1;
nodes = (
(242,335,l),
(396,335,l),
(396,415,l),
(242,415,l),
(242,664,l),
(467,664,l),
(518,611,l),
(518,139,l),
(466,86,l),
(242,86,l)
);
}
);
width = 690;
}
);
unicode = 208;
},
{
glyphname = E;
layers = (
{
layerId = m001;
shapes = (
{
closed = 1;
nodes = (
(80,670,l),
(150,670,l),
(150,80,l),
(80,80,l),
(80,0,l),
(556,0,l),
(556,196,l),
(476,196,l),
(476,80,l),
(242,80,l),
(242,335,l),
(476,335,l),
(476,415,l),
(242,415,l),
(242,670,l),
(476,670,l),
(476,554,l),
(556,554,l),
(556,750,l),
(80,750,l,{
name = hr00;
})
);
}
);
width = 636;
}
);
unicode = 69;
},
{
glyphname = Eacute;
layers = (
{
layerId = m001;
shapes = (
{
closed = 1;
nodes = (
(80,670,l),
(150,670,l),
(150,80,l),
(80,80,l),
(80,0,l),
(556,0,l),
(556,196,l),
(476,196,l),
(476,80,l),
(242,80,l),
(242,335,l),
(476,335,l),
(476,415,l),
(242,415,l),
(242,670,l),
(476,670,l),
(476,554,l),
(556,554,l),
(556,750,l),
(80,750,l)
);
},
{
closed = 1;
nodes = (
(201,849,l),
(214,811,l,{
name = hr01;
}),
(346,811,l),
(424,843,l),
(395,926,l)
);
}
);
width = 636;
}
);
unicode = 201;
},
{
glyphname = Ecircumflex;
layers = (
{
layerId = m001;
shapes = (
{
closed = 1;
nodes = (
(80,670,l),
(150,670,l),
(150,80,l),
(80,80,l),
(80,0,l),
(556,0,l),
(556,196,l),
(476,196,l),
(476,80,l),
(242,80,l),
(242,335,l),
(476,335,l),
(476,415,l),
(242,415,l),
(242,670,l),
(476,670,l),
(476,554,l),
(556,554,l),
(556,750,l),
(80,750,l,{
name = hr00;
})
);
},
{
closed = 1;
nodes = (
(174,839,l),
(187,811,l),
(269,811,l),
(312,860,l),
(356,811,l),
(438,811,l),
(451,839,l),
(362,916,l),
(263,916,l)
);
}
);
width = 636;
}
);
unicode = 202;
},
{
glyphname = Edieresis;
layers = (
{
layerId = m001;
shapes = (
{
closed = 1;
nodes = (
(80,670,l),
(150,670,l),
(150,80,l),
(80,80,l),
(80,0,l),
(556,0,l),
(556,196,l),
(476,196,l),
(476,80,l),
(242,80,l),
(242,335,l),
(476,335,l),
(476,415,l),
(242,415,l),
(242,670,l),
(476,670,l),
(476,554,l),
(556,554,l),
(556,750,l),
(80,750,l)
);
},
{
closed = 1;
nodes = (
(269,811,l),
(269,912,l),
(177,912,l),
(177,811,l,{
name = hr01;
})
);
},
{
closed = 1;
nodes = (
(448,811,l),
(448,912,l),
(356,912,l),
(356,811,l)
);
}
);
width = 636;
}
);
unicode = 203;
},
{
glyphname = Egrave;
layers = (
{
layerId = m001;
shapes = (
{
closed = 1;
nodes = (
(80,670,l),
(150,670,l),
(150,80,l),
(80,80,l),
(80,0,l),
(556,0,l),
(556,196,l),
(476,196,l),
(476,80,l),
(242,80,l),
(242,335,l),
(476,335,l),
(476,415,l),
(242,415,l),
(242,670,l),
(476,670,l),
(476,554,l),
(556,554,l),
(556,750,l),
(80,750,l)
);
},
{
closed = 1;
nodes = (
(279,811,l,{
name = hr01;
}),
(411,811,l),
(424,849,l),
(230,926,l),
(201,843,l)
);
}
);
width = 636;
}
);
unicode = 200;
},
{
glyphname = F;
layers = (
{
layerId = m001;
shapes = (
{
closed = 1;
nodes = (
(80,670,l),
(150,670,l),
(150,80,l),
(80,80,l),
(80,0,l),
(322,0,l),
(322,80,l),
(242,80,l),
(242,335,l),
(476,335,l),
(476,415,l),
(242,415,l),
(242,670,l),
(476,670,l),
(476,554,l),
(556,554,l),
(556,750,l),
(80,750,l,{
name = hr00;
})
);
}
);
width = 596;
}
);
unicode = 70;
},
{
glyphname = G;
layers = (
{
layerId = m001;
shapes = (
{
closed = 1;
nodes = (
(172,139,l),
(172,611,l),
(224,664,l),
(407,664,l),
(470,599,l),
(470,514,l),
(550,514,l),
(550,640,l),
(446,750,l),
(184,750,l),
(80,640,l),
(80,110,l),
(184,0,l),
(446,0,l),
(550,110,l),
(550,385,l),
(332,385,l),
(332,305,l),
(470,305,l),
(470,151,l),
(406,86,l),
(223,86,l,{
name = hr00;
})
);
}
);
width = 620;
}
);
unicode = 71;
},
{
glyphname = H;
layers = (
{
layerId = m001;
shapes = (
{
closed = 1;
nodes = (
(80,670,l),
(150,670,l),
(150,80,l),
(80,80,l),
(80,0,l),
(312,0,l),
(312,80,l),
(242,80,l),
(242,335,l),
(550,335,l),
(550,80,l),
(480,80,l),
(480,0,l),
(712,0,l),
(712,80,l),
(642,80,l),
(642,670,l),
(712,670,l),
(712,750,l),
(480,750,l),
(480,670,l),
(550,670,l),
(550,415,l),
(242,415,l),
(242,670,l),
(312,670,l),
(312,750,l),
(80,750,l,{
name = hr00;
})
);
}
);
width = 792;
}
);
unicode = 72;
},
{
glyphname = I;
layers = (
{
layerId = m001;
shapes = (
{
closed = 1;
nodes = (
(70,0,l),
(322,0,l),
(322,80,l),
(242,80,l),
(242,670,l),
(322,670,l),
(322,750,l),
(70,750,l),
(70,670,l),
(150,670,l),
(150,80,l),
(70,80,l,{
name = hr00;
})
);
}
);
width = 392;
}
);
unicode = 73;
},
{
glyphname = Iacute;
layers = (
{
layerId = m001;
shapes = (
{
closed = 1;
nodes = (
(70,670,l),
(150,670,l),
(150,80,l),
(70,80,l),
(70,0,l),
(322,0,l),
(322,80,l),
(242,80,l),
(242,670,l),
(322,670,l),
(322,750,l),
(70,750,l)
);
},
{
closed = 1;
nodes = (
(85,849,l),
(98,811,l,{
name = hr01;
}),
(230,811,l),
(308,843,l),
(279,926,l)
);
}
);
width = 392;
}
);
unicode = 205;
},
{
glyphname = Icircumflex;
layers = (
{
layerId = m001;
shapes = (
{
closed = 1;
nodes = (
(70,670,l),
(150,670,l),
(150,80,l),
(70,80,l),
(70,0,l),
(322,0,l),
(322,80,l),
(242,80,l),
(242,670,l),
(322,670,l),
(322,750,l),
(70,750,l,{
name = hr00;
})
);
},
{
closed = 1;
nodes = (
(58,839,l),
(71,811,l),
(153,811,l),
(196,860,l),
(240,811,l),
(322,811,l),
(335,839,l),
(246,916,l),
(147,916,l)
);
}
);
width = 392;
}
);
unicode = 206;
},
{
glyphname = Idieresis;
layers = (
{
layerId = m001;
shapes = (
{
closed = 1;
nodes = (
(70,670,l),
(150,670,l,{
name = hr01;
}),
(150,80,l),
(70,80,l,{
name = hr02;
}),
(70,0,l),
(322,0,l),
(322,80,l),
(242,80,l,{
name = hr03;
}),
(242,670,l),
(322,670,l,{
name = hr04;
}),
(322,750,l),
(70,750,l)
);
},
{
closed = 1;
nodes = (
(332,811,l),
(332,912,l),
(240,912,l),
(240,811,l)
);
},
{
closed = 1;
nodes = (
(153,811,l),
(153,912,l),
(61,912,l),
(61,811,l)
);
}
);
width = 392;
}
);
unicode = 207;
},
{
glyphname = Igrave;
layers = (
{
layerId = m001;
shapes = (
{
closed = 1;
nodes = (
(70,670,l),
(150,670,l),
(150,80,l),
(70,80,l),
(70,0,l),
(322,0,l),
(322,80,l),
(242,80,l),
(242,670,l),
(322,670,l),
(322,750,l),
(70,750,l)
);
},
{
closed = 1;
nodes = (
(163,811,l,{
name = hr01;
}),
(295,811,l),
(308,849,l),
(114,926,l),
(85,843,l)
);
}
);
width = 392;
}
);
unicode = 204;
},
{
glyphname = J;
layers = (
{
layerId = m001;
shapes = (
{
closed = 1;
nodes = (
(100,151,l),
(100,286,l),
(20,286,l),
(20,110,l),
(124,0,l),
(316,0,l),
(420,110,l),
(420,670,l),
(480,670,l),
(480,750,l),
(258,750,l),
(258,670,l),
(328,670,l),
(328,139,l),
(276,86,l),
(163,86,l,{
name = hr00;
})
);
}
);
width = 540;
}
);
unicode = 74;
},
{
glyphname = K;
layers = (
{
layerId = m001;
shapes = (
{
closed = 1;
nodes = (
(649,80,l),
(598,80,l),
(407,381,l),
(589,670,l),
(639,670,l),
(639,750,l),
(427,750,l),
(427,670,l),
(486,670,l),
(326,415,l),
(242,415,l),
(242,670,l),
(312,670,l),
(312,750,l),
(80,750,l),
(80,670,l),
(150,670,l),
(150,80,l),
(80,80,l),
(80,0,l),
(312,0,l),
(312,80,l),
(242,80,l),
(242,335,l),
(333,335,l),
(495,80,l),
(437,80,l),
(437,0,l),
(649,0,l,{
name = hr00;
})
);
}
);
width = 669;
}
);
unicode = 75;
},
{
glyphname = L;
layers = (
{
layerId = m001;
shapes = (
{
closed = 1;
nodes = (
(80,670,l),
(150,670,l),
(150,80,l),
(80,80,l),
(80,0,l),
(536,0,l),
(536,196,l),
(460,196,l),
(460,80,l),
(242,80,l),
(242,670,l),
(322,670,l),
(322,750,l),
(80,750,l,{
name = hr00;
})
);
}
);
width = 556;
}
);
unicode = 76;
},
{
glyphname = Lslash;
layers = (
{
layerId = m001;
shapes = (
{
closed = 1;
nodes = (
(80,0,l),
(536,0,l),
(536,196,l),
(460,196,l),
(460,80,l),
(242,80,l),
(242,341,l),
(377,385,l),
(377,455,l),
(242,411,l),
(242,670,l),
(322,670,l),
(322,750,l),
(80,750,l),
(80,670,l),
(150,670,l),
(150,381,l),
(68,355,l),
(68,285,l),
(150,311,l),
(150,80,l),
(80,80,l,{
name = hr00;
})
);
}
);
width = 556;
}
);
unicode = 321;
},
{
glyphname = M;
layers = (
{
layerId = m001;
shapes = (
{
closed = 1;
nodes = (
(80,670,l),
(150,670,l),
(150,80,l),
(80,80,l),
(80,0,l),
(312,0,l),
(312,80,l),
(242,80,l),
(242,617,l),
(429,80,l),
(517,80,l),
(704,617,l),
(704,80,l),
(634,80,l),
(634,0,l),
(866,0,l),
(866,80,l),
(796,80,l),
(796,670,l),
(866,670,l),
(866,750,l),
(662,750,l),
(473,194,l),
(284,750,l),
(80,750,l,{
name = hr00;
})
);
}
);
width = 946;
}
);
unicode = 77;
},
{
glyphname = N;
layers = (
{
layerId = m001;
shapes = (
{
closed = 1;
nodes = (
(672,0,l),
(672,670,l),
(742,670,l),
(742,750,l),
(510,750,l),
(510,670,l),
(580,670,l),
(580,113,l),
(288,750,l),
(80,750,l),
(80,670,l),
(150,670,l),
(150,80,l),
(80,80,l),
(80,0,l),
(312,0,l),
(312,80,l),
(242,80,l),
(242,636,l),
(534,0,l,{
name = hr00;
})
);
}
);
width = 812;
}
);
unicode = 78;
},
{
glyphname = Ntilde;
layers = (
{
layerId = m001;
shapes = (
{
closed = 1;
nodes = (
(80,670,l),
(150,670,l),
(150,80,l),
(80,80,l),
(80,0,l),
(312,0,l),
(312,80,l),
(242,80,l),
(242,636,l),
(534,0,l),
(672,0,l),
(672,670,l),
(742,670,l),
(742,750,l),
(510,750,l),
(510,670,l),
(580,670,l),
(580,113,l),
(288,750,l),
(80,750,l,{
name = hr00;
})
);
},
{
closed = 1;
nodes = (
(555,888,l),
(542,916,l),
(470,916,l),
(438,888,l),
(381,916,l),
(355,916,l),
(277,839,l),
(290,811,l),
(362,811,l),
(394,839,l),
(451,811,l),
(477,811,l)
);
}
);
width = 812;
}
);
unicode = 209;
},
{
glyphname = Eng;
layers = (
{
layerId = m001;
shapes = (
{
closed = 1;
nodes = (
(416,-173,l),
(568,-173,l),
(672,-63,l),
(672,114,l),
(580,114,l),
(580,-34,l),
(528,-87,l),
(455,-87,l),
(380,-10,l),
(318,-72,l,{
name = hr00;
})
);
},
{
closed = 1;
nodes = (
(672,114,l),
(672,670,l),
(742,670,l),
(742,750,l),
(510,750,l),
(510,670,l),
(580,670,l),
(580,212,l),
(288,750,l),
(80,750,l),
(80,670,l),
(150,670,l),
(150,80,l),
(80,80,l),
(80,0,l),
(242,0,l),
(242,651,l),
(580,45,l)
);
}
);
width = 812;
}
);
unicode = 330;
},
{
glyphname = O;
layers = (
{
layerId = m001;
shapes = (
{
closed = 1;
nodes = (
(466,0,l),
(570,110,l),
(570,640,l),
(466,750,l),
(184,750,l),
(80,640,l),
(80,110,l),
(184,0,l,{
name = hr00;
})
);
},
{
closed = 1;
nodes = (
(172,139,l),
(172,611,l),
(224,664,l),
(427,664,l),
(478,611,l),
(478,139,l),
(426,86,l),
(223,86,l)
);
}
);
width = 650;
}
);
unicode = 79;
},
{
glyphname = Oacute;
layers = (
{
layerId = m001;
shapes = (
{
closed = 1;
nodes = (
(466,0,l),
(570,110,l),
(570,640,l),
(466,750,l),
(184,750,l),
(80,640,l),
(80,110,l),
(184,0,l)
);
},
{
closed = 1;
nodes = (
(172,139,l),
(172,611,l),
(224,664,l),
(427,664,l),
(478,611,l),
(478,139,l),
(426,86,l),
(223,86,l)
);
},
{
closed = 1;
nodes = (
(213,849,l),
(226,811,l,{
name = hr01;
}),
(358,811,l),
(436,843,l),
(407,926,l)
);
}
);
width = 650;
}
);
unicode = 211;
},
{
glyphname = Ocircumflex;
layers = (
{
layerId = m001;
shapes = (
{
closed = 1;
nodes = (
(466,0,l),
(570,110,l),
(570,640,l),
(466,750,l),
(184,750,l),
(80,640,l),
(80,110,l),
(184,0,l,{
name = hr00;
})
);
},
{
closed = 1;
nodes = (
(172,139,l),
(172,611,l),
(224,664,l),
(427,664,l),
(478,611,l),
(478,139,l),
(426,86,l),
(223,86,l)
);
},
{
closed = 1;
nodes = (
(186,839,l),
(199,811,l),
(281,811,l),
(324,860,l),
(368,811,l),
(450,811,l),
(463,839,l),
(374,916,l),
(275,916,l)
);
}
);
width = 650;
}
);
unicode = 212;
},
{
glyphname = Odieresis;
layers = (
{
layerId = m001;
shapes = (
{
closed = 1;
nodes = (
(466,0,l),
(570,110,l),
(570,640,l),
(466,750,l),
(184,750,l),
(80,640,l),
(80,110,l),
(184,0,l,{
name = hr00;
})
);
},
{
closed = 1;
nodes = (
(172,139,l),
(172,611,l),
(224,664,l),
(427,664,l),
(478,611,l),
(478,139,l),
(426,86,l),
(223,86,l)
);
},
{
closed = 1;
nodes = (
(281,811,l),
(281,912,l),
(189,912,l),
(189,811,l)
);
},
{
closed = 1;
nodes = (
(460,811,l),
(460,912,l),
(368,912,l),
(368,811,l)
);
}
);
width = 650;
}
);
unicode = 214;
},
{
glyphname = Ograve;
layers = (
{
layerId = m001;
shapes = (
{
closed = 1;
nodes = (
(466,0,l),
(570,110,l),
(570,640,l),
(466,750,l),
(184,750,l),
(80,640,l),
(80,110,l),
(184,0,l)
);
},
{
closed = 1;
nodes = (
(172,139,l),
(172,611,l),
(224,664,l),
(427,664,l),
(478,611,l),
(478,139,l),
(426,86,l),
(223,86,l)
);
},
{
closed = 1;
nodes = (
(291,811,l,{
name = hr01;
}),
(423,811,l),
(436,849,l),
(242,926,l),
(213,843,l)
);
}
);
width = 650;
}
);
unicode = 210;
},
{
glyphname = Oslash;
layers = (
{
layerId = m001;
shapes = (
{
closed = 1;
nodes = (
(119,-107,l),
(578,836,l),
(532,860,l),
(73,-83,l,{
name = hr00;
})
);
},
{
closed = 1;
nodes = (
(466,0,l),
(570,110,l),
(570,640,l),
(466,750,l),
(184,750,l),
(80,640,l),
(80,110,l),
(184,0,l)
);
},
{
closed = 1;
nodes = (
(172,139,l),
(172,611,l),
(224,664,l),
(427,664,l),
(478,611,l),
(478,139,l),
(426,86,l),
(223,86,l)
);
}
);
width = 650;
}
);
unicode = 216;
},
{
glyphname = Otilde;
layers = (
{
layerId = m001;
shapes = (
{
closed = 1;
nodes = (
(466,0,l),
(570,110,l),
(570,640,l),
(466,750,l),
(184,750,l),
(80,640,l),
(80,110,l),
(184,0,l,{
name = hr00;
})
);
},
{
closed = 1;
nodes = (
(172,139,l),
(172,611,l),
(224,664,l),
(427,664,l),
(478,611,l),
(478,139,l),
(426,86,l),
(223,86,l)
);
},
{
closed = 1;
nodes = (
(474,888,l),
(461,916,l),
(389,916,l),
(357,888,l),
(300,916,l),
(274,916,l),
(196,839,l),
(209,811,l),
(281,811,l),
(313,839,l),
(370,811,l),
(396,811,l)
);
}
);
width = 650;
}
);
unicode = 213;
},
{
glyphname = OE;
layers = (
{
layerId = m001;
shapes = (
{
closed = 1;
nodes = (
(855,0,l),
(855,196,l),
(775,196,l),
(775,80,l),
(540,80,l),
(540,335,l),
(775,335,l),
(775,415,l),
(540,415,l),
(540,670,l),
(775,670,l),
(775,554,l),
(855,554,l),
(855,750,l),
(184,750,l),
(80,640,l),
(80,110,l),
(184,0,l,{
name = hr00;
})
);
},
{
closed = 1;
nodes = (
(172,139,l),
(172,611,l),
(230,670,l),
(448,670,l),
(448,80,l),
(229,80,l)
);
}
);
width = 935;
}
);
unicode = 338;
},
{
glyphname = P;
layers = (
{
layerId = m001;
shapes = (
{
closed = 1;
nodes = (
(80,670,l),
(150,670,l),
(150,80,l),
(80,80,l),
(80,0,l),
(322,0,l),
(322,80,l),
(242,80,l),
(242,300,l),
(480,300,l),
(584,410,l),
(584,640,l),
(480,750,l),
(80,750,l,{
name = hr00;
})
);
},
{
closed = 1;
nodes = (
(242,386,l),
(242,664,l),
(441,664,l),
(498,605,l),
(498,445,l),
(440,386,l)
);
}
);
width = 624;
}
);
unicode = 80;
},
{
glyphname = Thorn;
layers = (
{
layerId = m001;
shapes = (
{
closed = 1;
nodes = (
(80,670,l),
(150,670,l),
(150,80,l),
(80,80,l),
(80,0,l),
(242,0,l),
(242,154,l),
(480,154,l),
(584,264,l),
(584,494,l),
(480,604,l),
(242,604,l),
(242,750,l),
(80,750,l,{
name = hr00;
})
);
},
{
closed = 1;
nodes = (
(242,240,l),
(242,518,l),
(441,518,l),
(498,459,l),
(498,299,l),
(440,240,l)
);
}
);
width = 624;
}
);
unicode = 222;
},
{
glyphname = Q;
layers = (
{
layerId = m001;
shapes = (
{
closed = 1;
nodes = (
(287,0,l),
(287,-100,l),
(362,-100,l),
(362,0,l),
(466,0,l),
(570,110,l),
(570,640,l),
(466,750,l),
(184,750,l),
(80,640,l),
(80,110,l),
(184,0,l,{
name = hr00;
})
);
},
{
closed = 1;
nodes = (
(172,139,l),
(172,611,l),
(224,664,l),
(427,664,l),
(478,611,l),
(478,139,l),
(426,86,l),
(362,86,l),
(362,236,l),
(287,236,l),
(287,86,l),
(223,86,l)
);
}
);
width = 650;
}
);
unicode = 81;
},
{
glyphname = R;
layers = (
{
layerId = m001;
shapes = (
{
closed = 1;
nodes = (
(80,670,l),
(150,670,l),
(150,80,l),
(80,80,l),
(80,0,l),
(302,0,l),
(302,80,l),
(242,80,l),
(242,310,l),
(383,310,l),
(490,80,l),
(451,80,l),
(451,0,l),
(639,0,l),
(639,80,l),
(587,80,l),
(480,310,l),
(584,420,l),
(584,640,l),
(480,750,l),
(80,750,l,{
name = hr00;
})
);
},
{
closed = 1;
nodes = (
(242,396,l),
(242,664,l),
(441,664,l),
(498,605,l),
(498,455,l),
(440,396,l)
);
}
);
width = 699;
}
);
unicode = 82;
},
{
glyphname = S;
layers = (
{
layerId = m001;
shapes = (
{
closed = 1;
nodes = (
(438,139,l),
(387,86,l),
(214,86,l),
(153,148,l),
(153,236,l),
(70,236,l),
(70,110,l),
(174,0,l),
(426,0,l),
(530,110,l),
(530,317,l),
(429,423,l),
(221,423,l),
(172,473,l,{
name = hr01;
}),
(172,611,l),
(224,664,l),
(377,664,l),
(437,602,l),
(437,514,l),
(520,514,l),
(520,640,l),
(416,750,l),
(184,750,l),
(80,640,l),
(80,444,l),
(182,337,l),
(390,337,l),
(438,288,l)
);
}
);
width = 600;
}
);
unicode = 83;
},
{
glyphname = Scaron;
layers = (
{
layerId = m001;
shapes = (
{
closed = 1;
nodes = (
(438,139,l),
(387,86,l),
(214,86,l),
(153,148,l),
(153,236,l),
(70,236,l),
(70,110,l),
(174,0,l),
(426,0,l),
(530,110,l),
(530,317,l),
(429,423,l),
(221,423,l),
(172,473,l,{
name = hr01;
}),
(172,611,l),
(224,664,l),
(377,664,l),
(437,602,l),
(437,514,l),
(520,514,l),
(520,640,l),
(416,750,l),
(184,750,l),
(80,640,l),
(80,444,l),
(182,337,l),
(390,337,l),
(438,288,l)
);
},
{
closed = 1;
nodes = (
(438,888,l),
(425,916,l),
(343,916,l),
(299,867,l),
(256,916,l),
(174,916,l),
(161,888,l),
(250,811,l),
(349,811,l)
);
}
);
width = 600;
}
);
unicode = 352;
},
{
glyphname = T;
layers = (
{
layerId = m001;
shapes = (
{
closed = 1;
nodes = (
(436,80,l),
(336,80,l),
(336,670,l),
(484,670,l),
(484,554,l),
(560,554,l),
(560,750,l),
(20,750,l),
(20,554,l),
(96,554,l),
(96,670,l),
(244,670,l),
(244,80,l),
(144,80,l),
(144,0,l),
(436,0,l,{
name = hr00;
})
);
}
);
width = 580;
}
);
unicode = 84;
},
{
glyphname = U;
layers = (
{
layerId = m001;
shapes = (
{
closed = 1;
nodes = (
(448,670,l),
(518,670,l),
(518,139,l),
(466,86,l),
(273,86,l),
(222,139,l),
(222,670,l),
(292,670,l),
(292,750,l),
(70,750,l),
(70,670,l),
(130,670,l),
(130,110,l),
(234,0,l),
(506,0,l),
(610,110,l),
(610,670,l),
(670,670,l),
(670,750,l),
(448,750,l,{
name = hr00;
})
);
}
);
width = 740;
}
);
unicode = 85;
},
{
glyphname = Uacute;
layers = (
{
layerId = m001;
shapes = (
{
closed = 1;
nodes = (
(448,670,l),
(518,670,l),
(518,139,l),
(466,86,l),
(273,86,l),
(222,139,l),
(222,670,l),
(292,670,l),
(292,750,l),
(70,750,l),
(70,670,l),
(130,670,l),
(130,110,l),
(234,0,l),
(506,0,l),
(610,110,l),
(610,670,l),
(670,670,l),
(670,750,l),
(448,750,l)
);
},
{
closed = 1;
nodes = (
(258,849,l),
(271,811,l,{
name = hr01;
}),
(403,811,l),
(481,843,l),
(452,926,l)
);
}
);
width = 740;
}
);
unicode = 218;
},
{
glyphname = Ucircumflex;
layers = (
{
layerId = m001;
shapes = (
{
closed = 1;
nodes = (
(448,670,l),
(518,670,l),
(518,139,l),
(466,86,l),
(273,86,l),
(222,139,l),
(222,670,l),
(292,670,l),
(292,750,l),
(70,750,l),
(70,670,l),
(130,670,l),
(130,110,l),
(234,0,l),
(506,0,l),
(610,110,l),
(610,670,l),
(670,670,l),
(670,750,l),
(448,750,l,{
name = hr00;
})
);
},
{
closed = 1;
nodes = (
(231,839,l),
(244,811,l),
(326,811,l),
(369,860,l),
(413,811,l),
(495,811,l),
(508,839,l),
(419,916,l),
(320,916,l)
);
}
);
width = 740;
}
);
unicode = 219;
},
{
glyphname = Udieresis;
layers = (
{
layerId = m001;
shapes = (
{
closed = 1;
nodes = (
(448,670,l),
(518,670,l),
(518,139,l),
(466,86,l),
(273,86,l),
(222,139,l),
(222,670,l),
(292,670,l),
(292,750,l),
(70,750,l),
(70,670,l),
(130,670,l),
(130,110,l),
(234,0,l),
(506,0,l),
(610,110,l),
(610,670,l),
(670,670,l),
(670,750,l),
(448,750,l,{
name = hr00;
})
);
},
{
closed = 1;
nodes = (
(505,811,l),
(505,912,l),
(413,912,l),
(413,811,l)
);
},
{
closed = 1;
nodes = (
(326,811,l),
(326,912,l),
(234,912,l),
(234,811,l)
);
}
);
width = 740;
}
);
unicode = 220;
},
{
glyphname = Ugrave;
layers = (
{
layerId = m001;
shapes = (
{
closed = 1;
nodes = (
(448,670,l),
(518,670,l),
(518,139,l),
(466,86,l),
(273,86,l),
(222,139,l),
(222,670,l),
(292,670,l),
(292,750,l),
(70,750,l),
(70,670,l),
(130,670,l),
(130,110,l),
(234,0,l),
(506,0,l),
(610,110,l),
(610,670,l),
(670,670,l),
(670,750,l),
(448,750,l)
);
},
{
closed = 1;
nodes = (
(336,811,l,{
name = hr01;
}),
(468,811,l),
(481,849,l),
(287,926,l),
(258,843,l)
);
}
);
width = 740;
}
);
unicode = 217;
},
{
glyphname = V;
layers = (
{
layerId = m001;
shapes = (
{
closed = 1;
nodes = (
(407,0,l),
(616,670,l),
(667,670,l),
(667,750,l),
(455,750,l),
(455,670,l),
(524,670,l),
(343,91,l),
(163,670,l),
(232,670,l),
(232,750,l),
(20,750,l),
(20,670,l),
(71,670,l),
(280,0,l,{
name = hr00;
})
);
}
);
width = 687;
}
);
unicode = 86;
},
{
glyphname = W;
layers = (
{
layerId = m001;
shapes = (
{
closed = 1;
nodes = (
(363,0,l),
(513,579,l),
(663,0,l),
(786,0,l),
(959,670,l),
(1006,670,l),
(1006,750,l),
(794,750,l),
(794,670,l),
(867,670,l),
(722,110,l),
(577,670,l),
(621,670,l),
(621,750,l),
(405,750,l),
(405,670,l),
(448,670,l),
(303,110,l),
(158,670,l),
(232,670,l),
(232,750,l),
(20,750,l),
(20,670,l),
(66,670,l),
(240,0,l,{
name = hr00;
})
);
}
);
width = 1026;
}
);
unicode = 87;
},
{
glyphname = X;
layers = (
{
layerId = m001;
shapes = (
{
closed = 1;
nodes = (
(242,80,l),
(183,80,l),
(323,304,l),
(465,80,l),
(407,80,l),
(407,0,l),
(619,0,l),
(619,80,l),
(568,80,l),
(378,380,l),
(559,670,l),
(609,670,l),
(609,750,l),
(397,750,l),
(397,670,l),
(456,670,l),
(326,462,l),
(194,670,l),
(252,670,l),
(252,750,l),
(40,750,l),
(40,670,l),
(91,670,l),
(271,386,l),
(80,80,l),
(30,80,l),
(30,0,l),
(242,0,l,{
name = hr00;
})
);
}
);
width = 649;
}
);
unicode = 88;
},
{
glyphname = Y;
layers = (
{
layerId = m001;
shapes = (
{
closed = 1;
nodes = (
(440,80,l),
(350,80,l),
(350,237,l),
(536,670,l),
(587,670,l),
(587,750,l),
(375,750,l),
(375,670,l),
(448,670,l),
(303,333,l),
(158,670,l),
(232,670,l),
(232,750,l),
(20,750,l),
(20,670,l),
(70,670,l),
(258,234,l),
(258,80,l),
(168,80,l),
(168,0,l),
(440,0,l,{
name = hr00;
})
);
}
);
width = 607;
}
);
unicode = 89;
},
{
glyphname = Yacute;
layers = (
{
layerId = m001;
shapes = (
{
closed = 1;
nodes = (
(440,80,l),
(350,80,l),
(350,237,l),
(536,670,l),
(587,670,l),
(587,750,l),
(375,750,l),
(375,670,l),
(448,670,l),
(303,333,l),
(158,670,l),
(232,670,l),
(232,750,l),
(20,750,l),
(20,670,l),
(70,670,l),
(258,234,l),
(258,80,l),
(168,80,l),
(168,0,l),
(440,0,l)
);
},
{
closed = 1;
nodes = (
(192,849,l),
(205,811,l,{
name = hr01;
}),
(337,811,l),
(415,843,l),
(386,926,l)
);
}
);
width = 607;
}
);
unicode = 221;
},
{
glyphname = Ydieresis;
layers = (
{
layerId = m001;
shapes = (
{
closed = 1;
nodes = (
(440,80,l),
(350,80,l),
(350,237,l),
(536,670,l),
(587,670,l),
(587,750,l),
(375,750,l),
(375,670,l),
(448,670,l),
(303,333,l),
(158,670,l),
(232,670,l),
(232,750,l),
(20,750,l),
(20,670,l),
(70,670,l),
(258,234,l),
(258,80,l),
(168,80,l,{
name = hr01;
}),
(168,0,l),
(440,0,l)
);
},
{
closed = 1;
nodes = (
(260,811,l),
(260,912,l),
(168,912,l),
(168,811,l)
);
},
{
closed = 1;
nodes = (
(439,811,l),
(439,912,l),
(347,912,l),
(347,811,l)
);
}
);
width = 607;
}
);
unicode = 376;
},
{
glyphname = Z;
layers = (
{
layerId = m001;
shapes = (
{
closed = 1;
nodes = (
(55,0,l),
(541,0,l),
(541,196,l),
(461,196,l),
(461,80,l),
(158,80,l),
(541,670,l),
(541,750,l),
(75,750,l),
(75,554,l),
(155,554,l),
(155,670,l),
(438,670,l),
(55,80,l,{
name = hr00;
})
);
}
);
width = 596;
}
);
unicode = 90;
},
{
glyphname = Zcaron;
layers = (
{
layerId = m001;
shapes = (
{
closed = 1;
nodes = (
(55,0,l),
(541,0,l),
(541,196,l),
(461,196,l),
(461,80,l),
(158,80,l),
(541,670,l),
(541,750,l),
(75,750,l),
(75,554,l),
(155,554,l),
(155,670,l),
(438,670,l),
(55,80,l,{
name = hr00;
})
);
},
{
closed = 1;
nodes = (
(436,888,l),
(423,916,l),
(341,916,l),
(297,867,l),
(254,916,l),
(172,916,l),
(159,888,l),
(248,811,l),
(347,811,l)
);
}
);
width = 596;
}
);
unicode = 381;
},
{
glyphname = a;
layers = (
{
layerId = m001;
shapes = (
{
closed = 1;
nodes = (
(642,0,l),
(642,80,l),
(588,80,l),
(419,570,l),
(462,570,l),
(462,650,l),
(195,650,l),
(195,570,l),
(237,570,l),
(68,80,l),
(15,80,l),
(15,0,l),
(227,0,l),
(227,80,l),
(160,80,l),
(203,204,l),
(453,204,l),
(496,80,l),
(430,80,l),
(430,0,l,{
name = hr00;
})
);
},
{
closed = 1;
nodes = (
(426,284,l),
(230,284,l),
(328,567,l)
);
}
);
width = 657;
}
);
unicode = 97;
},
{
glyphname = aacute;
layers = (
{
layerId = m001;
shapes = (
{
closed = 1;
nodes = (
(195,570,l),
(237,570,l),
(68,80,l),
(15,80,l),
(15,0,l),
(227,0,l),
(227,80,l),
(160,80,l),
(203,204,l),
(453,204,l),
(496,80,l),
(430,80,l),
(430,0,l),
(642,0,l),
(642,80,l),
(588,80,l),
(419,570,l),
(462,570,l),
(462,650,l),
(195,650,l)
);
},
{
closed = 1;
nodes = (
(426,284,l),
(230,284,l),
(328,567,l)
);
},
{
closed = 1;
nodes = (
(247,749,l),
(260,711,l,{
name = hr01;
}),
(392,711,l),
(470,743,l),
(441,826,l)
);
}
);
width = 657;
}
);
unicode = 225;
},
{
glyphname = acircumflex;
layers = (
{
layerId = m001;
shapes = (
{
closed = 1;
nodes = (
(195,650,l),
(195,570,l),
(237,570,l),
(68,80,l),
(15,80,l),
(15,0,l),
(227,0,l),
(227,80,l),
(160,80,l),
(203,204,l),
(453,204,l),
(496,80,l),
(430,80,l),
(430,0,l),
(642,0,l),
(642,80,l),
(588,80,l),
(419,570,l),
(462,570,l),
(462,650,l,{
name = hr00;
})
);
},
{
closed = 1;
nodes = (
(426,284,l),
(230,284,l),
(328,567,l)
);
},
{
closed = 1;
nodes = (
(190,739,l),
(203,711,l),
(285,711,l),
(328,760,l),
(372,711,l),
(454,711,l),
(467,739,l),
(378,816,l),
(279,816,l)
);
}
);
width = 657;
}
);
unicode = 226;
},
{
glyphname = adieresis;
layers = (
{
layerId = m001;
shapes = (
{
closed = 1;
nodes = (
(195,650,l),
(195,570,l),
(237,570,l),
(68,80,l),
(15,80,l),
(15,0,l),
(227,0,l),
(227,80,l),
(160,80,l),
(203,204,l),
(453,204,l),
(496,80,l),
(430,80,l),
(430,0,l),
(642,0,l),
(642,80,l),
(588,80,l),
(419,570,l),
(462,570,l),
(462,650,l,{
name = hr00;
})
);
},
{
closed = 1;
nodes = (
(426,284,l),
(230,284,l),
(328,567,l)
);
},
{
closed = 1;
nodes = (
(464,711,l),
(464,812,l),
(372,812,l),
(372,711,l)
);
},
{
closed = 1;
nodes = (
(285,711,l),
(285,812,l),
(193,812,l),
(193,711,l)
);
}
);
width = 657;
}
);
unicode = 228;
},
{
glyphname = agrave;
layers = (
{
layerId = m001;
shapes = (
{
closed = 1;
nodes = (
(642,0,l),
(642,80,l),
(588,80,l),
(419,570,l),
(462,570,l),
(462,650,l),
(195,650,l),
(195,570,l),
(237,570,l),
(68,80,l),
(15,80,l),
(15,0,l),
(227,0,l),
(227,80,l),
(160,80,l),
(203,204,l),
(453,204,l),
(496,80,l),
(430,80,l),
(430,0,l)
);
},
{
closed = 1;
nodes = (
(426,284,l),
(230,284,l),
(328,567,l)
);
},
{
closed = 1;
nodes = (
(295,711,l,{
name = hr01;
}),
(427,711,l),
(440,749,l),
(246,826,l),
(217,743,l)
);
}
);
width = 657;
}
);
unicode = 224;
},
{
glyphname = aring;
layers = (
{
layerId = m001;
shapes = (
{
closed = 1;
nodes = (
(642,0,l),
(642,80,l),
(588,80,l),
(419,570,l),
(462,570,l),
(462,650,l),
(195,650,l),
(195,570,l),
(237,570,l),
(68,80,l),
(15,80,l),
(15,0,l),
(227,0,l),
(227,80,l),
(160,80,l),
(203,204,l),
(453,204,l),
(496,80,l),
(430,80,l),
(430,0,l,{
name = hr00;
})
);
},
{
closed = 1;
nodes = (
(426,284,l),
(230,284,l),
(328,567,l)
);
},
{
closed = 1;
nodes = (
(372,701,l),
(407,738,l),
(407,816,l),
(372,853,l),
(285,853,l),
(250,816,l),
(250,738,l),
(285,701,l)
);
},
{
closed = 1;
nodes = (
(294,812,l),
(363,812,l),
(363,742,l),
(294,742,l)
);
}
);
width = 657;
}
);
unicode = 229;
},
{
glyphname = atilde;
layers = (
{
layerId = m001;
shapes = (
{
closed = 1;
nodes = (
(195,570,l),
(237,570,l),
(68,80,l),
(15,80,l),
(15,0,l),
(227,0,l),
(227,80,l),
(160,80,l),
(203,204,l),
(453,204,l),
(496,80,l),
(430,80,l),
(430,0,l),
(642,0,l),
(642,80,l),
(588,80,l),
(419,570,l),
(462,570,l),
(462,650,l),
(195,650,l,{
name = hr00;
})
);
},
{
closed = 1;
nodes = (
(426,284,l),
(230,284,l),
(328,567,l)
);
},
{
closed = 1;
nodes = (
(477,788,l),
(464,816,l),
(392,816,l),
(360,788,l),
(303,816,l),
(277,816,l),
(199,739,l),
(212,711,l),
(284,711,l),
(316,739,l),
(373,711,l),
(399,711,l)
);
}
);
width = 657;
}
);
unicode = 227;
},
{
glyphname = ae;
layers = (
{
layerId = m001;
shapes = (
{
closed = 1;
nodes = (
(391,0,l),
(867,0,l),
(867,196,l),
(787,196,l),
(787,80,l),
(553,80,l),
(553,285,l),
(787,285,l),
(787,365,l),
(553,365,l),
(553,570,l),
(787,570,l),
(787,454,l),
(867,454,l),
(867,650,l),
(195,650,l),
(195,570,l),
(237,570,l),
(68,80,l),
(15,80,l),
(15,0,l),
(227,0,l),
(227,80,l),
(160,80,l),
(231,285,l),
(461,285,l),
(461,80,l),
(391,80,l,{
name = hr00;
})
);
},
{
closed = 1;
nodes = (
(461,570,l),
(461,365,l),
(258,365,l),
(329,570,l)
);
}
);
width = 947;
}
);
unicode = 230;
},
{
glyphname = b;
layers = (
{
layerId = m001;
shapes = (
{
closed = 1;
nodes = (
(80,570,l),
(150,570,l),
(150,80,l),
(80,80,l),
(80,0,l),
(500,0,l),
(604,110,l),
(604,266,l),
(530,343,l),
(584,400,l,{
name = hr01;
}),
(584,540,l),
(480,650,l),
(80,650,l)
);
},
{
closed = 1;
nodes = (
(242,86,l),
(242,296,l),
(455,296,l),
(518,231,l,{
name = hr02;
}),
(518,145,l),
(460,86,l)
);
},
{
closed = 1;
nodes = (
(242,376,l),
(242,564,l),
(441,564,l),
(498,505,l,{
name = hr03;
}),
(498,435,l),
(440,376,l)
);
}
);
width = 684;
}
);
unicode = 98;
},
{
glyphname = c;
layers = (
{
layerId = m001;
shapes = (
{
closed = 1;
nodes = (
(172,139,l),
(172,511,l),
(224,564,l),
(397,564,l),
(460,499,l),
(460,414,l),
(540,414,l),
(540,540,l),
(436,650,l),
(184,650,l),
(80,540,l),
(80,110,l),
(184,0,l),
(436,0,l),
(540,110,l),
(540,236,l),
(460,236,l),
(460,151,l),
(396,86,l),
(223,86,l,{
name = hr00;
})
);
}
);
width = 600;
}
);
unicode = 99;
},
{
glyphname = ccedilla;
layers = (
{
layerId = m001;
shapes = (
{
closed = 1;
nodes = (
(240,-150,l),
(290,-150,l),
(360,0,l),
(436,0,l),
(540,110,l),
(540,236,l),
(460,236,l),
(460,151,l),
(396,86,l),
(223,86,l),
(172,139,l),
(172,511,l),
(224,564,l),
(397,564,l),
(460,499,l),
(460,414,l),
(540,414,l),
(540,540,l),
(436,650,l),
(184,650,l),
(80,540,l),
(80,110,l),
(184,0,l),
(260,0,l,{
name = hr00;
})
);
}
);
width = 600;
}
);
unicode = 231;
},
{
glyphname = d;
layers = (
{
layerId = m001;
shapes = (
{
closed = 1;
nodes = (
(80,570,l),
(150,570,l),
(150,80,l),
(80,80,l),
(80,0,l),
(506,0,l),
(610,110,l),
(610,540,l),
(506,650,l),
(80,650,l,{
name = hr00;
})
);
},
{
closed = 1;
nodes = (
(242,564,l),
(467,564,l),
(518,511,l),
(518,139,l),
(466,86,l),
(242,86,l)
);
}
);
width = 690;
}
);
unicode = 100;
},
{
glyphname = eth;
layers = (
{
layerId = m001;
shapes = (
{
closed = 1;
nodes = (
(80,570,l),
(150,570,l),
(150,365,l),
(87,365,l),
(87,285,l),
(150,285,l),
(150,80,l),
(80,80,l),
(80,0,l),
(506,0,l),
(610,110,l),
(610,540,l),
(506,650,l),
(80,650,l,{
name = hr00;
})
);
},
{
closed = 1;
nodes = (
(242,285,l),
(396,285,l),
(396,365,l),
(242,365,l),
(242,564,l),
(467,564,l),
(518,511,l),
(518,139,l),
(466,86,l),
(242,86,l)
);
}
);
width = 690;
}
);
unicode = 240;
},
{
glyphname = e;
layers = (
{
layerId = m001;
shapes = (
{
closed = 1;
nodes = (
(80,570,l),
(150,570,l),
(150,80,l),
(80,80,l),
(80,0,l),
(556,0,l),
(556,196,l),
(476,196,l),
(476,80,l),
(242,80,l),
(242,285,l),
(476,285,l),
(476,365,l),
(242,365,l),
(242,570,l),
(476,570,l),
(476,454,l),
(556,454,l),
(556,650,l),
(80,650,l,{
name = hr00;
})
);
}
);
width = 636;
}
);
unicode = 101;
},
{
glyphname = eacute;
layers = (
{
layerId = m001;
shapes = (
{
closed = 1;
nodes = (
(80,570,l),
(150,570,l),
(150,80,l),
(80,80,l),
(80,0,l),
(556,0,l),
(556,196,l),
(476,196,l),
(476,80,l),
(242,80,l),
(242,285,l),
(476,285,l),
(476,365,l),
(242,365,l),
(242,570,l),
(476,570,l),
(476,454,l),
(556,454,l),
(556,650,l),
(80,650,l)
);
},
{
closed = 1;
nodes = (
(231,749,l),
(244,711,l,{
name = hr01;
}),
(376,711,l),
(454,743,l),
(425,826,l)
);
}
);
width = 636;
}
);
unicode = 233;
},
{
glyphname = ecircumflex;
layers = (
{
layerId = m001;
shapes = (
{
closed = 1;
nodes = (
(80,570,l),
(150,570,l),
(150,80,l),
(80,80,l),
(80,0,l),
(556,0,l),
(556,196,l),
(476,196,l),
(476,80,l),
(242,80,l),
(242,285,l),
(476,285,l),
(476,365,l),
(242,365,l),
(242,570,l),
(476,570,l),
(476,454,l),
(556,454,l),
(556,650,l),
(80,650,l,{
name = hr00;
})
);
},
{
closed = 1;
nodes = (
(174,739,l),
(187,711,l),
(269,711,l),
(312,760,l),
(356,711,l),
(438,711,l),
(451,739,l),
(362,816,l),
(263,816,l)
);
}
);
width = 636;
}
);
unicode = 234;
},
{
glyphname = edieresis;
layers = (
{
layerId = m001;
shapes = (
{
closed = 1;
nodes = (
(80,570,l),
(150,570,l),
(150,80,l),
(80,80,l),
(80,0,l),
(556,0,l),
(556,196,l),
(476,196,l),
(476,80,l),
(242,80,l),
(242,285,l),
(476,285,l),
(476,365,l),
(242,365,l),
(242,570,l),
(476,570,l),
(476,454,l),
(556,454,l),
(556,650,l),
(80,650,l)
);
},
{
closed = 1;
nodes = (
(269,711,l),
(269,812,l),
(177,812,l),
(177,711,l,{
name = hr01;
})
);
},
{
closed = 1;
nodes = (
(448,711,l),
(448,812,l),
(356,812,l),
(356,711,l)
);
}
);
width = 636;
}
);
unicode = 235;
},
{
glyphname = egrave;
layers = (
{
layerId = m001;
shapes = (
{
closed = 1;
nodes = (
(80,570,l),
(150,570,l),
(150,80,l),
(80,80,l),
(80,0,l),
(556,0,l),
(556,196,l),
(476,196,l),
(476,80,l),
(242,80,l),
(242,285,l),
(476,285,l),
(476,365,l),
(242,365,l),
(242,570,l),
(476,570,l),
(476,454,l),
(556,454,l),
(556,650,l),
(80,650,l)
);
},
{
closed = 1;
nodes = (
(279,711,l,{
name = hr01;
}),
(411,711,l),
(424,749,l),
(230,826,l),
(201,743,l)
);
}
);
width = 636;
}
);
unicode = 232;
},
{
glyphname = f;
layers = (
{
layerId = m001;
shapes = (
{
closed = 1;
nodes = (
(80,570,l),
(150,570,l),
(150,80,l),
(80,80,l),
(80,0,l),
(322,0,l),
(322,80,l),
(242,80,l),
(242,285,l),
(476,285,l),
(476,365,l),
(242,365,l),
(242,570,l),
(476,570,l),
(476,454,l),
(556,454,l),
(556,650,l),
(80,650,l,{
name = hr00;
})
);
}
);
width = 596;
}
);
unicode = 102;
},
{
glyphname = g;
layers = (
{
layerId = m001;
shapes = (
{
closed = 1;
nodes = (
(172,139,l),
(172,511,l),
(224,564,l),
(407,564,l),
(470,499,l),
(470,414,l),
(550,414,l),
(550,540,l),
(446,650,l),
(184,650,l),
(80,540,l),
(80,110,l),
(184,0,l),
(446,0,l),
(550,110,l),
(550,335,l),
(332,335,l),
(332,255,l),
(470,255,l),
(470,151,l),
(406,86,l),
(223,86,l,{
name = hr00;
})
);
}
);
width = 620;
}
);
unicode = 103;
},
{
glyphname = h;
layers = (
{
layerId = m001;
shapes = (
{
closed = 1;
nodes = (
(80,570,l),
(150,570,l),
(150,80,l),
(80,80,l),
(80,0,l),
(312,0,l),
(312,80,l),
(242,80,l),
(242,285,l),
(550,285,l),
(550,80,l),
(480,80,l),
(480,0,l),
(712,0,l),
(712,80,l),
(642,80,l),
(642,570,l),
(712,570,l),
(712,650,l),
(480,650,l),
(480,570,l),
(550,570,l),
(550,365,l),
(242,365,l),
(242,570,l),
(312,570,l),
(312,650,l),
(80,650,l,{
name = hr00;
})
);
}
);
width = 792;
}
);
unicode = 104;
},
{
glyphname = i;
layers = (
{
layerId = m001;
shapes = (
{
closed = 1;
nodes = (
(70,0,l),
(322,0,l),
(322,80,l),
(242,80,l),
(242,570,l),
(322,570,l),
(322,650,l),
(70,650,l),
(70,570,l),
(150,570,l),
(150,80,l),
(70,80,l,{
name = hr00;
})
);
}
);
width = 392;
}
);
unicode = 105;
},
{
glyphname = idotless;
lastChange = "2024-04-25 10:33:04 +0000";
layers = (
{
layerId = m001;
shapes = (
{
closed = 1;
nodes = (
(70,0,l),
(322,0,l),
(322,80,l),
(242,80,l),
(242,570,l),
(322,570,l),
(322,650,l),
(70,650,l),
(70,570,l),
(150,570,l),
(150,80,l),
(70,80,l,{
name = hr00;
})
);
}
);
width = 392;
}
);
unicode = 305;
},
{
glyphname = iacute;
layers = (
{
layerId = m001;
shapes = (
{
closed = 1;
nodes = (
(70,570,l),
(150,570,l),
(150,80,l),
(70,80,l),
(70,0,l),
(322,0,l),
(322,80,l),
(242,80,l),
(242,570,l),
(322,570,l),
(322,650,l),
(70,650,l)
);
},
{
closed = 1;
nodes = (
(85,749,l),
(98,711,l,{
name = hr01;
}),
(230,711,l),
(308,743,l),
(279,826,l)
);
}
);
width = 392;
}
);
unicode = 237;
},
{
glyphname = icircumflex;
layers = (
{
layerId = m001;
shapes = (
{
closed = 1;
nodes = (
(70,570,l),
(150,570,l),
(150,80,l),
(70,80,l),
(70,0,l),
(322,0,l),
(322,80,l),
(242,80,l),
(242,570,l),
(322,570,l),
(322,650,l),
(70,650,l,{
name = hr00;
})
);
},
{
closed = 1;
nodes = (
(58,739,l),
(71,711,l),
(153,711,l),
(196,760,l),
(240,711,l),
(322,711,l),
(335,739,l),
(246,816,l),
(147,816,l)
);
}
);
width = 392;
}
);
unicode = 238;
},
{
glyphname = idieresis;
layers = (
{
layerId = m001;
shapes = (
{
closed = 1;
nodes = (
(70,570,l),
(150,570,l,{
name = hr01;
}),
(150,80,l),
(70,80,l,{
name = hr02;
}),
(70,0,l),
(322,0,l),
(322,80,l),
(242,80,l,{
name = hr03;
}),
(242,570,l),
(322,570,l,{
name = hr04;
}),
(322,650,l),
(70,650,l)
);
},
{
closed = 1;
nodes = (
(332,711,l),
(332,812,l),
(240,812,l),
(240,711,l)
);
},
{
closed = 1;
nodes = (
(153,711,l),
(153,812,l),
(61,812,l),
(61,711,l)
);
}
);
width = 392;
}
);
unicode = 239;
},
{
glyphname = igrave;
layers = (
{
layerId = m001;
shapes = (
{
closed = 1;
nodes = (
(70,570,l),
(150,570,l),
(150,80,l),
(70,80,l),
(70,0,l),
(322,0,l),
(322,80,l),
(242,80,l),
(242,570,l),
(322,570,l),
(322,650,l),
(70,650,l)
);
},
{
closed = 1;
nodes = (
(163,711,l,{
name = hr01;
}),
(295,711,l),
(308,749,l),
(114,826,l),
(85,743,l)
);
}
);
width = 392;
}
);
unicode = 236;
},
{
glyphname = j;
layers = (
{
layerId = m001;
shapes = (
{
closed = 1;
nodes = (
(100,151,l),
(100,286,l),
(20,286,l),
(20,110,l),
(124,0,l),
(316,0,l),
(420,110,l),
(420,570,l),
(480,570,l),
(480,650,l),
(258,650,l),
(258,570,l),
(328,570,l),
(328,139,l),
(276,86,l),
(163,86,l,{
name = hr00;
})
);
}
);
width = 540;
}
);
unicode = 106;
},
{
glyphname = k;
layers = (
{
layerId = m001;
shapes = (
{
closed = 1;
nodes = (
(649,80,l),
(591,80,l),
(410,332,l),
(581,570,l),
(639,570,l),
(639,650,l),
(427,650,l),
(427,570,l),
(478,570,l),
(330,365,l),
(242,365,l),
(242,570,l),
(312,570,l),
(312,650,l),
(80,650,l),
(80,570,l),
(150,570,l),
(150,80,l),
(80,80,l),
(80,0,l),
(312,0,l),
(312,80,l),
(242,80,l),
(242,285,l),
(341,285,l),
(488,80,l),
(437,80,l),
(437,0,l),
(649,0,l,{
name = hr00;
})
);
}
);
width = 669;
}
);
unicode = 107;
},
{
glyphname = kgreenlandic;
layers = (
{
layerId = m001;
shapes = (
{
closed = 1;
nodes = (
(312,570,l),
(312,650,l),
(80,650,l),
(80,570,l),
(150,570,l),
(150,80,l),
(80,80,l),
(80,0,l),
(312,0,l),
(312,80,l),
(242,80,l),
(242,570,l,{
name = hr00;
})
);
},
{
closed = 1;
nodes = (
(508,80,l),
(457,80,l),
(457,0,l),
(669,0,l),
(669,80,l),
(611,80,l),
(389,390,l),
(320,343,l)
);
},
{
closed = 1;
nodes = (
(581,570,l),
(639,570,l),
(639,650,l),
(536,650,l),
(162,195,l),
(242,162,l)
);
}
);
width = 669;
}
);
unicode = 312;
},
{
glyphname = l;
layers = (
{
layerId = m001;
shapes = (
{
closed = 1;
nodes = (
(80,570,l),
(150,570,l),
(150,80,l),
(80,80,l),
(80,0,l),
(536,0,l),
(536,196,l),
(460,196,l),
(460,80,l),
(242,80,l),
(242,570,l),
(322,570,l),
(322,650,l),
(80,650,l,{
name = hr00;
})
);
}
);
width = 556;
}
);
unicode = 108;
},
{
glyphname = lslash;
layers = (
{
layerId = m001;
shapes = (
{
closed = 1;
nodes = (
(80,0,l),
(536,0,l),
(536,196,l),
(460,196,l),
(460,80,l),
(242,80,l),
(242,295,l),
(377,339,l),
(377,409,l),
(242,365,l),
(242,570,l),
(322,570,l),
(322,650,l),
(80,650,l),
(80,570,l),
(150,570,l),
(150,335,l),
(68,309,l),
(68,239,l),
(150,265,l),
(150,80,l),
(80,80,l,{
name = hr00;
})
);
}
);
width = 556;
}
);
unicode = 322;
},
{
glyphname = m;
layers = (
{
layerId = m001;
shapes = (
{
closed = 1;
nodes = (
(517,80,l),
(704,537,l),
(704,80,l),
(634,80,l),
(634,0,l),
(866,0,l),
(866,80,l),
(796,80,l),
(796,570,l),
(866,570,l),
(866,650,l),
(662,650,l),
(473,177,l),
(284,650,l),
(80,650,l),
(80,570,l),
(150,570,l),
(150,80,l),
(80,80,l),
(80,0,l),
(312,0,l),
(312,80,l),
(242,80,l),
(242,537,l),
(429,80,l,{
name = hr00;
})
);
}
);
width = 946;
}
);
unicode = 109;
},
{
glyphname = n;
layers = (
{
layerId = m001;
shapes = (
{
closed = 1;
nodes = (
(672,0,l),
(672,570,l),
(742,570,l),
(742,650,l),
(510,650,l),
(510,570,l),
(580,570,l),
(580,98,l),
(288,650,l),
(80,650,l),
(80,570,l),
(150,570,l),
(150,80,l),
(80,80,l),
(80,0,l),
(312,0,l),
(312,80,l),
(242,80,l),
(242,551,l),
(534,0,l,{
name = hr00;
})
);
}
);
width = 812;
}
);
unicode = 110;
},
{
glyphname = ntilde;
layers = (
{
layerId = m001;
shapes = (
{
closed = 1;
nodes = (
(80,570,l),
(150,570,l),
(150,80,l),
(80,80,l),
(80,0,l),
(312,0,l),
(312,80,l),
(242,80,l),
(242,551,l),
(534,0,l),
(672,0,l),
(672,570,l),
(742,570,l),
(742,650,l),
(510,650,l),
(510,570,l),
(580,570,l),
(580,98,l),
(288,650,l),
(80,650,l,{
name = hr00;
})
);
},
{
closed = 1;
nodes = (
(555,788,l),
(542,816,l),
(470,816,l),
(438,788,l),
(381,816,l),
(355,816,l),
(277,739,l),
(290,711,l),
(362,711,l),
(394,739,l),
(451,711,l),
(477,711,l)
);
}
);
width = 812;
}
);
unicode = 241;
},
{
glyphname = eng;
layers = (
{
layerId = m001;
shapes = (
{
closed = 1;
nodes = (
(416,-173,l),
(568,-173,l),
(672,-63,l),
(672,114,l),
(580,114,l),
(580,-34,l),
(528,-87,l),
(455,-87,l),
(380,-10,l),
(318,-72,l,{
name = hr00;
})
);
},
{
closed = 1;
nodes = (
(672,114,l),
(672,570,l),
(742,570,l),
(742,650,l),
(510,650,l),
(510,570,l),
(580,570,l),
(580,212,l),
(288,650,l),
(80,650,l),
(80,570,l),
(150,570,l),
(150,80,l),
(80,80,l),
(80,0,l),
(242,0,l),
(242,551,l),
(580,45,l)
);
}
);
width = 812;
}
);
unicode = 331;
},
{
glyphname = o;
layers = (
{
layerId = m001;
shapes = (
{
closed = 1;
nodes = (
(466,0,l),
(570,110,l),
(570,540,l),
(466,650,l),
(184,650,l),
(80,540,l),
(80,110,l),
(184,0,l,{
name = hr00;
})
);
},
{
closed = 1;
nodes = (
(172,139,l),
(172,511,l),
(224,564,l),
(427,564,l),
(478,511,l),
(478,139,l),
(426,86,l),
(223,86,l)
);
}
);
width = 650;
}
);
unicode = 111;
},
{
glyphname = oacute;
layers = (
{
layerId = m001;
shapes = (
{
closed = 1;
nodes = (
(466,0,l),
(570,110,l),
(570,540,l),
(466,650,l),
(184,650,l),
(80,540,l),
(80,110,l),
(184,0,l)
);
},
{
closed = 1;
nodes = (
(172,139,l),
(172,511,l),
(224,564,l),
(427,564,l),
(478,511,l),
(478,139,l),
(426,86,l),
(223,86,l)
);
},
{
closed = 1;
nodes = (
(243,749,l),
(256,711,l,{
name = hr01;
}),
(388,711,l),
(466,743,l),
(437,826,l)
);
}
);
width = 650;
}
);
unicode = 243;
},
{
glyphname = ocircumflex;
layers = (
{
layerId = m001;
shapes = (
{
closed = 1;
nodes = (
(466,0,l),
(570,110,l),
(570,540,l),
(466,650,l),
(184,650,l),
(80,540,l),
(80,110,l),
(184,0,l,{
name = hr00;
})
);
},
{
closed = 1;
nodes = (
(172,139,l),
(172,511,l),
(224,564,l),
(427,564,l),
(478,511,l),
(478,139,l),
(426,86,l),
(223,86,l)
);
},
{
closed = 1;
nodes = (
(186,739,l),
(199,711,l),
(281,711,l),
(324,760,l),
(368,711,l),
(450,711,l),
(463,739,l),
(374,816,l),
(275,816,l)
);
}
);
width = 650;
}
);
unicode = 244;
},
{
glyphname = odieresis;
layers = (
{
layerId = m001;
shapes = (
{
closed = 1;
nodes = (
(466,0,l),
(570,110,l),
(570,540,l),
(466,650,l),
(184,650,l),
(80,540,l),
(80,110,l),
(184,0,l,{
name = hr00;
})
);
},
{
closed = 1;
nodes = (
(172,139,l),
(172,511,l),
(224,564,l),
(427,564,l),
(478,511,l),
(478,139,l),
(426,86,l),
(223,86,l)
);
},
{
closed = 1;
nodes = (
(281,711,l),
(281,812,l),
(189,812,l),
(189,711,l)
);
},
{
closed = 1;
nodes = (
(460,711,l),
(460,812,l),
(368,812,l),
(368,711,l)
);
}
);
width = 650;
}
);
unicode = 246;
},
{
glyphname = ograve;
layers = (
{
layerId = m001;
shapes = (
{
closed = 1;
nodes = (
(466,0,l),
(570,110,l),
(570,540,l),
(466,650,l),
(184,650,l),
(80,540,l),
(80,110,l),
(184,0,l)
);
},
{
closed = 1;
nodes = (
(172,139,l),
(172,511,l),
(224,564,l),
(427,564,l),
(478,511,l),
(478,139,l),
(426,86,l),
(223,86,l)
);
},
{
closed = 1;
nodes = (
(291,711,l,{
name = hr01;
}),
(423,711,l),
(436,749,l),
(242,826,l),
(213,743,l)
);
}
);
width = 650;
}
);
unicode = 242;
},
{
glyphname = oslash;
layers = (
{
layerId = m001;
shapes = (
{
closed = 1;
nodes = (
(76,-139,l),
(619,760,l),
(573,788,l),
(30,-111,l,{
name = hr00;
})
);
},
{
closed = 1;
nodes = (
(466,0,l),
(570,110,l),
(570,540,l),
(466,650,l),
(184,650,l),
(80,540,l),
(80,110,l),
(184,0,l)
);
},
{
closed = 1;
nodes = (
(172,139,l),
(172,511,l),
(224,564,l),
(427,564,l),
(478,511,l),
(478,139,l),
(426,86,l),
(223,86,l)
);
}
);
width = 650;
}
);
unicode = 248;
},
{
glyphname = otilde;
layers = (
{
layerId = m001;
shapes = (
{
closed = 1;
nodes = (
(466,0,l),
(570,110,l),
(570,540,l),
(466,650,l),
(184,650,l),
(80,540,l),
(80,110,l),
(184,0,l,{
name = hr00;
})
);
},
{
closed = 1;
nodes = (
(172,139,l),
(172,511,l),
(224,564,l),
(427,564,l),
(478,511,l),
(478,139,l),
(426,86,l),
(223,86,l)
);
},
{
closed = 1;
nodes = (
(474,788,l),
(461,816,l),
(389,816,l),
(357,788,l),
(300,816,l),
(274,816,l),
(196,739,l),
(209,711,l),
(281,711,l),
(313,739,l),
(370,711,l),
(396,711,l)
);
}
);
width = 650;
}
);
unicode = 245;
},
{
glyphname = oe;
layers = (
{
layerId = m001;
shapes = (
{
closed = 1;
nodes = (
(855,0,l),
(855,196,l),
(775,196,l),
(775,80,l),
(540,80,l),
(540,286,l),
(775,286,l),
(775,366,l),
(540,366,l),
(540,570,l),
(775,570,l),
(775,454,l),
(855,454,l),
(855,650,l),
(184,650,l),
(80,540,l),
(80,110,l),
(184,0,l,{
name = hr00;
})
);
},
{
closed = 1;
nodes = (
(172,139,l),
(172,511,l),
(230,570,l),
(448,570,l),
(448,80,l),
(229,80,l)
);
}
);
width = 935;
}
);
unicode = 339;
},
{
glyphname = p;
layers = (
{
layerId = m001;
shapes = (
{
closed = 1;
nodes = (
(80,570,l),
(150,570,l),
(150,80,l),
(80,80,l),
(80,0,l),
(322,0,l),
(322,80,l),
(242,80,l),
(242,220,l),
(480,220,l),
(584,330,l),
(584,540,l),
(480,650,l),
(80,650,l,{
name = hr00;
})
);
},
{
closed = 1;
nodes = (
(242,306,l),
(242,564,l),
(441,564,l),
(498,505,l),
(498,365,l),
(440,306,l)
);
}
);
width = 624;
}
);
unicode = 112;
},
{
glyphname = thorn;
layers = (
{
layerId = m001;
shapes = (
{
closed = 1;
nodes = (
(80,570,l),
(150,570,l),
(150,80,l),
(80,80,l),
(80,0,l),
(242,0,l),
(242,124,l),
(480,124,l),
(584,234,l),
(584,424,l),
(480,534,l),
(242,534,l),
(242,650,l),
(80,650,l,{
name = hr00;
})
);
},
{
closed = 1;
nodes = (
(242,210,l),
(242,448,l),
(441,448,l),
(498,389,l),
(498,269,l),
(440,210,l)
);
}
);
width = 624;
}
);
unicode = 254;
},
{
glyphname = q;
layers = (
{
layerId = m001;
shapes = (
{
closed = 1;
nodes = (
(287,0,l),
(287,-100,l),
(362,-100,l),
(362,0,l),
(466,0,l),
(570,110,l),
(570,540,l),
(466,650,l),
(184,650,l),
(80,540,l),
(80,110,l),
(184,0,l,{
name = hr00;
})
);
},
{
closed = 1;
nodes = (
(172,139,l),
(172,511,l),
(224,564,l),
(427,564,l),
(478,511,l),
(478,139,l),
(426,86,l),
(362,86,l),
(362,206,l),
(287,206,l),
(287,86,l),
(223,86,l)
);
}
);
width = 650;
}
);
unicode = 113;
},
{
glyphname = r;
layers = (
{
layerId = m001;
shapes = (
{
closed = 1;
nodes = (
(80,570,l),
(150,570,l),
(150,80,l),
(80,80,l),
(80,0,l),
(302,0,l),
(302,80,l),
(242,80,l),
(242,230,l),
(389,230,l),
(479,80,l),
(451,80,l),
(451,0,l),
(629,0,l),
(629,80,l),
(576,80,l),
(483,234,l),
(584,340,l),
(584,540,l),
(480,650,l),
(80,650,l,{
name = hr00;
})
);
},
{
closed = 1;
nodes = (
(242,316,l),
(242,564,l),
(441,564,l),
(498,505,l),
(498,375,l),
(440,316,l)
);
}
);
width = 699;
}
);
unicode = 114;
},
{
glyphname = s;
layers = (
{
layerId = m001;
shapes = (
{
closed = 1;
nodes = (
(438,139,l),
(387,86,l),
(214,86,l),
(153,148,l),
(153,236,l),
(70,236,l),
(70,110,l),
(174,0,l),
(426,0,l),
(530,110,l),
(530,257,l),
(429,363,l),
(221,363,l),
(172,413,l,{
name = hr01;
}),
(172,511,l),
(224,564,l),
(377,564,l),
(437,502,l),
(437,414,l),
(520,414,l),
(520,540,l),
(416,650,l),
(184,650,l),
(80,540,l),
(80,384,l),
(182,277,l),
(390,277,l),
(438,228,l)
);
}
);
width = 600;
}
);
unicode = 115;
},
{
glyphname = scaron;
layers = (
{
layerId = m001;
shapes = (
{
closed = 1;
nodes = (
(438,139,l),
(387,86,l),
(214,86,l),
(153,148,l),
(153,236,l),
(70,236,l),
(70,110,l),
(174,0,l),
(426,0,l),
(530,110,l),
(530,257,l),
(429,363,l),
(221,363,l),
(172,413,l,{
name = hr01;
}),
(172,511,l),
(224,564,l),
(377,564,l),
(437,502,l),
(437,414,l),
(520,414,l),
(520,540,l),
(416,650,l),
(184,650,l),
(80,540,l),
(80,384,l),
(182,277,l),
(390,277,l),
(438,228,l)
);
},
{
closed = 1;
nodes = (
(438,788,l),
(425,816,l),
(343,816,l),
(299,767,l),
(256,816,l),
(174,816,l),
(161,788,l),
(250,711,l),
(349,711,l)
);
}
);
width = 600;
}
);
unicode = 353;
},
{
glyphname = germandbls;
layers = (
{
layerId = m001;
shapes = (
{
closed = 1;
nodes = (
(492,403,l),
(566,480,l),
(566,640,l),
(462,750,l),
(234,750,l),
(130,640,l),
(130,80,l),
(60,80,l),
(60,0,l),
(222,0,l),
(222,611,l),
(274,664,l),
(423,664,l),
(480,605,l),
(480,515,l),
(369,403,l),
(304,403,l),
(304,323,l),
(548,323,l,{
name = hr01;
}),
(548,145,l),
(490,86,l),
(392,86,l),
(314,165,l),
(255,103,l),
(352,0,l),
(530,0,l),
(634,110,l),
(634,353,l),
(584,403,l)
);
}
);
width = 714;
}
);
unicode = 223;
},
{
glyphname = t;
layers = (
{
layerId = m001;
shapes = (
{
closed = 1;
nodes = (
(436,80,l),
(336,80,l),
(336,570,l),
(474,570,l),
(474,454,l),
(550,454,l),
(550,650,l),
(30,650,l),
(30,454,l),
(106,454,l),
(106,570,l),
(244,570,l),
(244,80,l),
(144,80,l),
(144,0,l),
(436,0,l,{
name = hr00;
})
);
}
);
width = 580;
}
);
unicode = 116;
},
{
glyphname = u;
layers = (
{
layerId = m001;
shapes = (
{
closed = 1;
nodes = (
(448,570,l),
(518,570,l),
(518,139,l),
(466,86,l),
(273,86,l),
(222,139,l),
(222,570,l),
(292,570,l),
(292,650,l),
(70,650,l),
(70,570,l),
(130,570,l),
(130,110,l),
(234,0,l),
(506,0,l),
(610,110,l),
(610,570,l),
(670,570,l),
(670,650,l),
(448,650,l,{
name = hr00;
})
);
}
);
width = 740;
}
);
unicode = 117;
},
{
glyphname = uacute;
layers = (
{
layerId = m001;
shapes = (
{
closed = 1;
nodes = (
(448,570,l),
(518,570,l),
(518,139,l),
(466,86,l),
(273,86,l),
(222,139,l),
(222,570,l),
(292,570,l),
(292,650,l),
(70,650,l),
(70,570,l),
(130,570,l),
(130,110,l),
(234,0,l),
(506,0,l),
(610,110,l),
(610,570,l),
(670,570,l),
(670,650,l),
(448,650,l,{
name = hr00;
})
);
},
{
closed = 1;
nodes = (
(288,749,l),
(301,711,l),
(433,711,l),
(511,743,l),
(482,826,l)
);
}
);
width = 740;
}
);
unicode = 250;
},
{
glyphname = ucircumflex;
layers = (
{
layerId = m001;
shapes = (
{
closed = 1;
nodes = (
(448,570,l),
(518,570,l),
(518,139,l),
(466,86,l),
(273,86,l),
(222,139,l),
(222,570,l),
(292,570,l),
(292,650,l),
(70,650,l),
(70,570,l),
(130,570,l),
(130,110,l),
(234,0,l),
(506,0,l),
(610,110,l),
(610,570,l),
(670,570,l),
(670,650,l),
(448,650,l,{
name = hr00;
})
);
},
{
closed = 1;
nodes = (
(231,739,l),
(244,711,l),
(326,711,l),
(369,760,l),
(413,711,l),
(495,711,l),
(508,739,l),
(419,816,l),
(320,816,l)
);
}
);
width = 740;
}
);
unicode = 251;
},
{
glyphname = udieresis;
layers = (
{
layerId = m001;
shapes = (
{
closed = 1;
nodes = (
(448,570,l),
(518,570,l),
(518,139,l),
(466,86,l),
(273,86,l),
(222,139,l),
(222,570,l),
(292,570,l),
(292,650,l),
(70,650,l),
(70,570,l),
(130,570,l),
(130,110,l),
(234,0,l),
(506,0,l),
(610,110,l),
(610,570,l),
(670,570,l),
(670,650,l),
(448,650,l,{
name = hr00;
})
);
},
{
closed = 1;
nodes = (
(505,711,l),
(505,812,l),
(413,812,l),
(413,711,l)
);
},
{
closed = 1;
nodes = (
(326,711,l),
(326,812,l),
(234,812,l),
(234,711,l)
);
}
);
width = 740;
}
);
unicode = 252;
},
{
glyphname = ugrave;
layers = (
{
layerId = m001;
shapes = (
{
closed = 1;
nodes = (
(448,570,l),
(518,570,l),
(518,139,l),
(466,86,l),
(273,86,l),
(222,139,l),
(222,570,l),
(292,570,l),
(292,650,l),
(70,650,l),
(70,570,l),
(130,570,l),
(130,110,l),
(234,0,l),
(506,0,l),
(610,110,l),
(610,570,l),
(670,570,l),
(670,650,l),
(448,650,l)
);
},
{
closed = 1;
nodes = (
(336,711,l,{
name = hr01;
}),
(468,711,l),
(481,749,l),
(287,826,l),
(258,743,l)
);
}
);
width = 740;
}
);
unicode = 249;
},
{
glyphname = v;
layers = (
{
layerId = m001;
shapes = (
{
closed = 1;
nodes = (
(407,0,l),
(612,570,l),
(667,570,l),
(667,650,l),
(455,650,l),
(455,570,l),
(520,570,l),
(343,79,l),
(167,570,l),
(232,570,l),
(232,650,l),
(20,650,l),
(20,570,l),
(75,570,l),
(280,0,l,{
name = hr00;
})
);
}
);
width = 687;
}
);
unicode = 118;
},
{
glyphname = w;
layers = (
{
layerId = m001;
shapes = (
{
closed = 1;
nodes = (
(363,0,l),
(513,503,l),
(663,0,l),
(786,0,l),
(956,570,l),
(1006,570,l),
(1006,650,l),
(794,650,l),
(794,570,l),
(864,570,l),
(722,95,l),
(581,570,l),
(621,570,l),
(621,650,l),
(405,650,l),
(405,570,l),
(445,570,l),
(303,95,l),
(162,570,l),
(232,570,l),
(232,650,l),
(20,650,l),
(20,570,l),
(70,570,l),
(240,0,l,{
name = hr00;
})
);
}
);
width = 1026;
}
);
unicode = 119;
},
{
glyphname = x;
layers = (
{
layerId = m001;
shapes = (
{
closed = 1;
nodes = (
(242,80,l),
(191,80,l),
(323,263,l),
(457,80,l),
(407,80,l),
(407,0,l),
(619,0,l),
(619,80,l),
(560,80,l),
(382,323,l),
(561,570,l),
(619,570,l),
(619,650,l),
(407,650,l),
(407,570,l),
(458,570,l),
(330,393,l),
(201,570,l),
(252,570,l),
(252,650,l),
(40,650,l),
(40,570,l),
(98,570,l),
(272,333,l),
(88,80,l),
(30,80,l),
(30,0,l),
(242,0,l,{
name = hr00;
})
);
}
);
width = 649;
}
);
unicode = 120;
},
{
glyphname = y;
layers = (
{
layerId = m001;
shapes = (
{
closed = 1;
nodes = (
(440,80,l),
(350,80,l),
(350,206,l),
(523,570,l),
(587,570,l),
(587,650,l),
(375,650,l),
(375,570,l),
(435,570,l),
(303,293,l),
(172,570,l),
(232,570,l),
(232,650,l),
(20,650,l),
(20,570,l),
(84,570,l),
(258,204,l),
(258,80,l),
(168,80,l),
(168,0,l),
(440,0,l,{
name = hr00;
})
);
}
);
width = 607;
}
);
unicode = 121;
},
{
glyphname = yacute;
layers = (
{
layerId = m001;
shapes = (
{
closed = 1;
nodes = (
(440,80,l),
(350,80,l),
(350,206,l),
(523,570,l),
(587,570,l),
(587,650,l),
(375,650,l),
(375,570,l),
(435,570,l),
(303,293,l),
(172,570,l),
(232,570,l),
(232,650,l),
(20,650,l),
(20,570,l),
(84,570,l),
(258,204,l),
(258,80,l),
(168,80,l),
(168,0,l),
(440,0,l)
);
},
{
closed = 1;
nodes = (
(212,749,l),
(225,711,l,{
name = hr01;
}),
(357,711,l),
(435,743,l),
(406,826,l)
);
}
);
width = 607;
}
);
unicode = 253;
},
{
glyphname = ydieresis;
layers = (
{
layerId = m001;
shapes = (
{
closed = 1;
nodes = (
(440,80,l),
(350,80,l),
(350,206,l),
(523,570,l),
(587,570,l),
(587,650,l),
(375,650,l),
(375,570,l),
(435,570,l),
(303,293,l),
(172,570,l),
(232,570,l),
(232,650,l),
(20,650,l),
(20,570,l),
(84,570,l),
(258,204,l),
(258,80,l),
(168,80,l,{
name = hr01;
}),
(168,0,l),
(440,0,l)
);
},
{
closed = 1;
nodes = (
(260,711,l),
(260,812,l),
(168,812,l),
(168,711,l)
);
},
{
closed = 1;
nodes = (
(439,711,l),
(439,812,l),
(347,812,l),
(347,711,l)
);
}
);
width = 607;
}
);
unicode = 255;
},
{
glyphname = z;
layers = (
{
layerId = m001;
shapes = (
{
closed = 1;
nodes = (
(55,0,l),
(541,0,l),
(541,196,l),
(461,196,l),
(461,80,l),
(159,80,l),
(541,570,l),
(541,650,l),
(75,650,l),
(75,454,l),
(155,454,l),
(155,570,l),
(438,570,l),
(55,80,l,{
name = hr00;
})
);
}
);
width = 596;
}
);
unicode = 122;
},
{
glyphname = zcaron;
layers = (
{
layerId = m001;
shapes = (
{
closed = 1;
nodes = (
(55,0,l),
(541,0,l),
(541,196,l),
(461,196,l),
(461,80,l),
(159,80,l),
(541,570,l),
(541,650,l),
(75,650,l),
(75,454,l),
(155,454,l),
(155,570,l),
(438,570,l),
(55,80,l,{
name = hr00;
})
);
},
{
closed = 1;
nodes = (
(436,788,l),
(423,816,l),
(341,816,l),
(297,767,l),
(254,816,l),
(172,816,l),
(159,788,l),
(248,711,l),
(347,711,l)
);
}
);
width = 596;
}
);
unicode = 382;
},
{
glyphname = fi;
layers = (
{
layerId = m001;
shapes = (
{
closed = 1;
nodes = (
(80,570,l),
(150,570,l),
(150,80,l),
(80,80,l),
(80,0,l),
(322,0,l),
(322,80,l),
(242,80,l),
(242,285,l),
(476,285,l),
(476,365,l),
(242,365,l),
(242,570,l),
(476,570,l),
(476,454,l),
(556,454,l),
(556,650,l),
(80,650,l,{
name = hr00;
})
);
},
{
closed = 1;
nodes = (
(666,570,l),
(746,570,l),
(746,80,l),
(666,80,l),
(666,0,l),
(918,0,l),
(918,80,l),
(838,80,l),
(838,570,l),
(918,570,l),
(918,650,l),
(666,650,l)
);
}
);
width = 988;
}
);
unicode = 64257;
},
{
glyphname = fl;
layers = (
{
layerId = m001;
shapes = (
{
closed = 1;
nodes = (
(80,570,l),
(150,570,l),
(150,80,l),
(80,80,l),
(80,0,l),
(322,0,l),
(322,80,l),
(242,80,l),
(242,285,l),
(476,285,l),
(476,365,l),
(242,365,l),
(242,570,l),
(476,570,l),
(476,454,l),
(556,454,l),
(556,650,l),
(80,650,l,{
name = hr00;
})
);
},
{
closed = 1;
nodes = (
(676,570,l),
(746,570,l),
(746,80,l),
(676,80,l),
(676,0,l),
(1132,0,l),
(1132,196,l),
(1056,196,l),
(1056,80,l),
(838,80,l),
(838,570,l),
(918,570,l),
(918,650,l),
(676,650,l)
);
}
);
width = 1152;
}
);
unicode = 64258;
},
{
glyphname = ordfeminine;
layers = (
{
layerId = m001;
shapes = (
{
closed = 1;
nodes = (
(391,406,l),
(391,470,l),
(357,470,l),
(266,736,l),
(286,736,l),
(286,800,l),
(115,800,l),
(115,736,l),
(135,736,l),
(43,470,l),
(10,470,l),
(10,406,l),
(150,406,l),
(150,470,l),
(116,470,l),
(135,524,l),
(266,524,l),
(286,470,l),
(251,470,l),
(251,406,l,{
name = hr00;
})
);
},
{
closed = 1;
nodes = (
(217,666,o),
(230,631,o),
(245,587,c),
(156,587,l),
(201,714,l)
);
}
);
width = 401;
}
);
unicode = 170;
},
{
glyphname = ordmasculine;
layers = (
{
layerId = m001;
shapes = (
{
closed = 1;
nodes = (
(282,406,l),
(346,475,l),
(346,731,l),
(282,800,l),
(110,800,l),
(45,731,l),
(45,475,l),
(110,406,l,{
name = hr00;
})
);
},
{
closed = 1;
nodes = (
(115,498,l),
(115,708,l),
(140,732,l),
(252,732,l),
(276,708,l),
(276,498,l),
(252,474,l),
(140,474,l)
);
}
);
width = 391;
}
);
unicode = 186;
},
{
glyphname = pi;
layers = (
{
layerId = m001;
shapes = (
{
closed = 1;
nodes = (
(80,570,l),
(160,570,l),
(160,0,l),
(252,0,l),
(252,570,l),
(510,570,l),
(510,50,l),
(600,-35,l),
(661,26,l),
(602,83,l),
(602,570,l),
(682,570,l),
(682,650,l),
(80,650,l,{
name = hr00;
})
);
}
);
width = 762;
}
);
unicode = 960;
},
{
glyphname = zero;
layers = (
{
layerId = m001;
shapes = (
{
closed = 1;
nodes = (
(466,0,l),
(570,110,l),
(570,640,l),
(466,750,l),
(184,750,l),
(80,640,l),
(80,110,l),
(184,0,l,{
name = hr00;
})
);
},
{
closed = 1;
nodes = (
(167,144,l),
(167,606,l),
(224,664,l),
(427,664,l),
(483,606,l),
(483,144,l),
(426,86,l),
(223,86,l)
);
},
{
closed = 1;
nodes = (
(275,315,l),
(375,315,l),
(375,435,l),
(275,435,l)
);
}
);
width = 650;
}
);
unicode = 48;
},
{
glyphname = one;
layers = (
{
layerId = m001;
shapes = (
{
closed = 1;
nodes = (
(107,650,l),
(146,572,l),
(309,653,l),
(309,80,l),
(159,80,l),
(159,0,l),
(551,0,l),
(551,80,l),
(401,80,l),
(401,750,l),
(309,750,l,{
name = hr00;
})
);
}
);
width = 650;
}
);
unicode = 49;
},
{
glyphname = two;
layers = (
{
layerId = m001;
shapes = (
{
closed = 1;
nodes = (
(545,196,l),
(465,196,l),
(465,80,l),
(197,80,l),
(530,444,l,{
name = hr01;
}),
(530,640,l),
(426,750,l),
(194,750,l),
(90,640,l),
(90,514,l),
(173,514,l),
(173,602,l),
(233,664,l),
(386,664,l),
(438,611,l),
(438,473,l),
(85,80,l,{
name = hr02;
}),
(85,0,l),
(545,0,l)
);
}
);
width = 650;
}
);
unicode = 50;
},
{
glyphname = three;
layers = (
{
layerId = m001;
shapes = (
{
closed = 1;
nodes = (
(403,333,l),
(457,278,l),
(457,139,l),
(406,86,l),
(233,86,l),
(172,148,l),
(172,236,l),
(89,236,l),
(89,110,l),
(193,0,l),
(445,0,l),
(549,110,l),
(549,307,l),
(479,380,l),
(530,433,l,{
name = hr01;
}),
(530,640,l),
(426,750,l),
(194,750,l),
(90,640,l),
(90,514,l),
(173,514,l),
(173,602,l),
(233,664,l),
(386,664,l),
(438,611,l),
(438,462,l),
(390,413,l),
(232,413,l),
(232,333,l)
);
}
);
width = 650;
}
);
unicode = 51;
},
{
glyphname = four;
layers = (
{
layerId = m001;
shapes = (
{
closed = 1;
nodes = (
(310,0,l),
(552,0,l),
(552,80,l),
(482,80,l),
(482,187,l),
(545,187,l),
(545,267,l),
(482,267,l),
(482,750,l),
(332,750,l),
(40,267,l),
(40,187,l),
(390,187,l),
(390,80,l),
(310,80,l,{
name = hr00;
})
);
},
{
closed = 1;
nodes = (
(390,679,l),
(390,267,l),
(141,267,l)
);
}
);
width = 650;
}
);
unicode = 52;
},
{
glyphname = five;
layers = (
{
layerId = m001;
shapes = (
{
closed = 1;
nodes = (
(539,554,l),
(539,750,l),
(119,750,l),
(119,373,l),
(413,373,l),
(467,318,l),
(467,139,l),
(416,86,l),
(243,86,l),
(182,148,l,{
name = hr01;
}),
(182,236,l),
(99,236,l),
(99,110,l),
(203,0,l),
(455,0,l),
(559,110,l),
(559,347,l),
(458,453,l),
(199,453,l,{
name = hr02;
}),
(199,670,l),
(459,670,l),
(459,554,l)
);
}
);
width = 650;
}
);
unicode = 53;
},
{
glyphname = six;
layers = (
{
layerId = m001;
shapes = (
{
closed = 1;
nodes = (
(100,110,l),
(204,0,l),
(456,0,l),
(560,110,l),
(560,327,l),
(459,433,l),
(187,433,l),
(187,606,l),
(244,664,l),
(397,664,l),
(457,602,l),
(457,514,l),
(540,514,l,{
name = hr01;
}),
(540,640,l),
(436,750,l),
(204,750,l),
(100,640,l),
(100,221,l)
);
},
{
closed = 1;
nodes = (
(468,298,l),
(468,139,l),
(417,86,l),
(244,86,l),
(187,144,l),
(187,353,l),
(414,353,l)
);
}
);
width = 650;
}
);
unicode = 54;
},
{
glyphname = seven;
layers = (
{
layerId = m001;
shapes = (
{
closed = 1;
nodes = (
(159,0,l),
(411,0,l),
(411,80,l),
(329,80,l),
(556,670,l),
(556,750,l),
(90,750,l),
(90,554,l),
(170,554,l),
(170,670,l),
(461,670,l),
(234,80,l),
(159,80,l,{
name = hr00;
})
);
}
);
width = 650;
}
);
unicode = 55;
},
{
glyphname = eight;
layers = (
{
layerId = m001;
shapes = (
{
closed = 1;
nodes = (
(194,0,l),
(456,0,l),
(560,110,l),
(560,317,l),
(495,385,l),
(551,444,l),
(551,640,l),
(447,750,l),
(204,750,l),
(100,640,l),
(100,444,l),
(155,386,l),
(90,317,l),
(90,110,l,{
name = hr00;
})
);
},
{
closed = 1;
nodes = (
(468,288,l),
(468,139,l),
(417,86,l),
(234,86,l),
(182,139,l),
(182,288,l),
(230,337,l),
(420,337,l)
);
},
{
closed = 1;
nodes = (
(192,611,l),
(244,664,l),
(407,664,l),
(459,611,l),
(459,473,l),
(410,423,l),
(241,423,l),
(192,473,l)
);
}
);
width = 650;
}
);
unicode = 56;
},
{
glyphname = nine;
layers = (
{
layerId = m001;
shapes = (
{
closed = 1;
nodes = (
(446,750,l),
(204,750,l),
(100,640,l),
(100,423,l),
(201,317,l),
(463,317,l),
(463,144,l),
(406,86,l),
(243,86,l),
(183,148,l),
(183,236,l),
(100,236,l),
(100,110,l),
(204,0,l),
(446,0,l),
(550,110,l),
(550,640,l,{
name = hr00;
})
);
},
{
closed = 1;
nodes = (
(192,452,l),
(192,611,l),
(243,664,l),
(406,664,l),
(463,606,l),
(463,397,l),
(246,397,l)
);
}
);
width = 650;
}
);
unicode = 57;
},
{
glyphname = fraction;
layers = (
{
layerId = m001;
shapes = (
{
closed = 1;
nodes = (
(336,-35,l),
(641,784,l),
(564,784,l),
(259,-35,l,{
name = hr00;
})
);
}
);
width = 900;
}
);
unicode = 8260;
},
{
glyphname = onehalf;
layers = (
{
layerId = m001;
shapes = (
{
closed = 1;
nodes = (
(831,0,l),
(831,131,l),
(767,131,l,{
name = hr01;
}),
(767,64,l),
(641,64,l),
(822,262,l),
(822,383,l),
(757,452,l),
(614,452,l),
(550,383,l),
(550,297,l),
(615,297,l),
(615,354,l),
(644,384,l),
(727,384,l),
(751,360,l,{
name = hr02;
}),
(751,287,l),
(546,58,l),
(546,0,l)
);
},
{
closed = 1;
nodes = (
(85,298,l),
(331,298,l),
(331,362,l),
(244,362,l),
(244,750,l),
(180,750,l),
(53,687,l),
(83,626,l),
(172,671,l),
(172,362,l),
(85,362,l)
);
},
{
closed = 1;
nodes = (
(336,-35,l),
(641,784,l),
(564,784,l),
(259,-35,l)
);
}
);
width = 900;
}
);
unicode = 189;
},
{
glyphname = onequarter;
layers = (
{
layerId = m001;
shapes = (
{
closed = 1;
nodes = (
(794,0,l),
(794,108,l),
(830,108,l),
(830,172,l),
(794,172,l),
(794,452,l),
(692,452,l),
(521,165,l),
(521,108,l),
(723,108,l),
(723,0,l,{
name = hr00;
})
);
},
{
closed = 1;
nodes = (
(723,370,l),
(723,172,l),
(605,172,l)
);
},
{
closed = 1;
nodes = (
(85,298,l),
(331,298,l),
(331,362,l),
(244,362,l),
(244,750,l),
(180,750,l),
(53,687,l),
(83,626,l),
(172,671,l),
(172,362,l),
(85,362,l)
);
},
{
closed = 1;
nodes = (
(336,-35,l),
(641,784,l),
(564,784,l),
(259,-35,l)
);
}
);
width = 900;
}
);
unicode = 188;
},
{
glyphname = threequarters;
layers = (
{
layerId = m001;
shapes = (
{
closed = 1;
nodes = (
(794,0,l),
(794,108,l),
(830,108,l),
(830,172,l),
(794,172,l),
(794,452,l),
(692,452,l),
(521,165,l),
(521,108,l),
(723,108,l),
(723,0,l,{
name = hr00;
})
);
},
{
closed = 1;
nodes = (
(723,370,l),
(723,172,l),
(605,172,l)
);
},
{
closed = 1;
nodes = (
(242,491,l),
(251,481,o),
(259,475,o),
(268,465,c),
(268,390,l),
(245,366,l),
(150,366,l),
(120,395,l),
(120,452,l),
(55,452,l),
(55,367,l),
(120,298,l),
(274,298,l),
(339,367,l),
(339,488,l),
(302,527,l),
(328,554,l),
(328,681,l),
(263,750,l),
(120,750,l),
(56,681,l),
(56,595,l),
(121,595,l),
(121,652,l),
(150,682,l),
(233,682,l),
(257,658,l),
(257,577,l),
(235,555,l),
(138,555,l),
(138,491,l)
);
},
{
closed = 1;
nodes = (
(356,-35,l),
(661,784,l),
(584,784,l),
(279,-35,l)
);
}
);
width = 900;
}
);
unicode = 190;
},
{
glyphname = onesuperior;
layers = (
{
layerId = m001;
shapes = (
{
closed = 1;
nodes = (
(86,330,l),
(332,330,l),
(332,394,l),
(245,394,l),
(245,782,l),
(181,782,l),
(54,719,l),
(84,658,l),
(173,703,l),
(173,394,l),
(86,394,l,{
name = hr00;
})
);
}
);
width = 390;
}
);
unicode = 185;
},
{
glyphname = twosuperior;
layers = (
{
layerId = m001;
shapes = (
{
closed = 1;
nodes = (
(328,330,l),
(328,461,l),
(264,461,l,{
name = hr01;
}),
(264,394,l),
(138,394,l),
(319,592,l),
(319,713,l),
(254,782,l),
(111,782,l),
(47,713,l),
(47,627,l),
(112,627,l),
(112,684,l),
(141,714,l),
(224,714,l),
(248,690,l,{
name = hr02;
}),
(248,617,l),
(43,388,l),
(43,330,l)
);
}
);
width = 390;
}
);
unicode = 178;
},
{
glyphname = threesuperior;
layers = (
{
layerId = m001;
shapes = (
{
closed = 1;
nodes = (
(233,523,l),
(242,513,o),
(250,507,o),
(259,497,c),
(259,422,l),
(236,398,l),
(141,398,l),
(111,427,l),
(111,484,l),
(46,484,l),
(46,399,l),
(111,330,l),
(265,330,l),
(330,399,l),
(330,520,l),
(293,559,l),
(319,586,l),
(319,713,l),
(254,782,l),
(111,782,l),
(47,713,l),
(47,627,l),
(112,627,l),
(112,684,l),
(141,714,l),
(224,714,l),
(248,690,l),
(248,609,l),
(226,587,l),
(129,587,l),
(129,523,l,{
name = hr00;
})
);
}
);
width = 390;
}
);
unicode = 179;
},
{
glyphname = period;
layers = (
{
layerId = m001;
shapes = (
{
closed = 1;
nodes = (
(50,0,l),
(150,0,l),
(150,120,l),
(50,120,l,{
name = hr00;
})
);
}
);
width = 200;
}
);
unicode = 46;
},
{
glyphname = comma;
layers = (
{
layerId = m001;
shapes = (
{
closed = 1;
nodes = (
(50,-130,l),
(90,-130,l),
(150,30,l),
(150,120,l),
(50,120,l,{
name = hr00;
})
);
}
);
width = 200;
}
);
unicode = 44;
},
{
glyphname = colon;
layers = (
{
layerId = m001;
shapes = (
{
closed = 1;
nodes = (
(50,0,l),
(150,0,l),
(150,120,l),
(50,120,l,{
name = hr00;
})
);
},
{
closed = 1;
nodes = (
(50,400,l),
(150,400,l),
(150,520,l),
(50,520,l)
);
}
);
width = 200;
}
);
unicode = 58;
},
{
glyphname = semicolon;
layers = (
{
layerId = m001;
shapes = (
{
closed = 1;
nodes = (
(50,-130,l),
(90,-130,l),
(150,30,l),
(150,120,l),
(50,120,l,{
name = hr00;
})
);
},
{
closed = 1;
nodes = (
(50,400,l),
(150,400,l),
(150,520,l),
(50,520,l)
);
}
);
width = 200;
}
);
unicode = 59;
},
{
glyphname = ellipsis;
layers = (
{
layerId = m001;
shapes = (
{
closed = 1;
nodes = (
(50,0,l),
(150,0,l),
(150,120,l),
(50,120,l,{
name = hr00;
})
);
},
{
closed = 1;
nodes = (
(250,0,l),
(350,0,l),
(350,120,l),
(250,120,l)
);
},
{
closed = 1;
nodes = (
(450,0,l),
(550,0,l),
(550,120,l),
(450,120,l)
);
}
);
width = 600;
}
);
unicode = 8230;
},
{
glyphname = exclam;
layers = (
{
layerId = m001;
shapes = (
{
closed = 1;
nodes = (
(80,0,l),
(180,0,l),
(180,120,l),
(80,120,l,{
name = hr00;
})
);
},
{
closed = 1;
nodes = (
(80,470,l),
(110,220,l),
(150,220,l),
(180,470,l),
(180,750,l),
(80,750,l)
);
}
);
width = 260;
}
);
unicode = 33;
},
{
glyphname = exclamdown;
layers = (
{
layerId = m001;
shapes = (
{
closed = 1;
nodes = (
(180,650,l),
(80,650,l),
(80,530,l),
(180,530,l,{
name = hr00;
})
);
},
{
closed = 1;
nodes = (
(180,180,l),
(150,430,l),
(110,430,l),
(80,180,l),
(80,-100,l),
(180,-100,l)
);
}
);
width = 260;
}
);
unicode = 161;
},
{
glyphname = question;
layers = (
{
layerId = m001;
shapes = (
{
closed = 1;
nodes = (
(459,444,l),
(459,640,l),
(355,750,l),
(164,750,l),
(60,640,l),
(60,514,l),
(143,514,l),
(143,602,l),
(203,664,l),
(315,664,l),
(367,611,l),
(367,473,l),
(188,274,l),
(248,214,l,{
name = hr00;
})
);
},
{
closed = 1;
nodes = (
(189,0,l),
(289,0,l),
(289,120,l),
(189,120,l)
);
}
);
width = 519;
}
);
unicode = 63;
},
{
glyphname = questiondown;
layers = (
{
layerId = m001;
shapes = (
{
closed = 1;
nodes = (
(60,206,l),
(60,10,l),
(164,-100,l),
(355,-100,l),
(459,10,l),
(459,136,l),
(376,136,l),
(376,48,l),
(316,-14,l),
(204,-14,l),
(152,39,l),
(152,177,l),
(331,376,l),
(271,436,l,{
name = hr00;
})
);
},
{
closed = 1;
nodes = (
(330,650,l),
(230,650,l),
(230,530,l),
(330,530,l)
);
}
);
width = 519;
}
);
unicode = 191;
},
{
glyphname = periodcentered;
layers = (
{
layerId = m001;
shapes = (
{
closed = 1;
nodes = (
(50,315,l),
(150,315,l),
(150,435,l),
(50,435,l,{
name = hr00;
})
);
}
);
width = 200;
}
);
unicode = 183;
},
{
glyphname = bullet;
layers = (
{
layerId = m001;
shapes = (
{
closed = 1;
nodes = (
(70,279,l),
(230,279,l),
(230,471,l),
(70,471,l,{
name = hr00;
})
);
}
);
width = 300;
}
);
unicode = 8226;
},
{
glyphname = asterisk;
layers = (
{
layerId = m001;
shapes = (
{
closed = 1;
nodes = (
(126,602,l),
(194,596,l),
(142,550,l),
(90,478,l),
(154,431,l),
(207,504,l),
(234,567,l),
(262,503,l),
(314,432,l),
(379,478,l),
(326,551,l),
(274,596,l),
(343,603,l),
(427,630,l),
(403,706,l),
(318,679,l),
(258,643,l),
(274,710,l),
(274,800,l),
(194,800,l),
(194,710,l),
(209,643,l),
(150,678,l),
(65,706,l),
(40,630,l,{
name = hr00;
})
);
}
);
width = 467;
}
);
unicode = 42;
},
{
glyphname = numbersign;
layers = (
{
layerId = m001;
shapes = (
{
closed = 1;
nodes = (
(401,0,l),
(455,200,l),
(555,200,l),
(574,269,l),
(474,269,l),
(532,482,l),
(632,482,l),
(651,551,l),
(551,551,l),
(606,750,l),
(529,750,l),
(474,551,l),
(271,551,l),
(326,750,l),
(249,750,l),
(194,551,l),
(95,551,l),
(76,482,l),
(175,482,l),
(117,269,l),
(18,269,l),
(-1,200,l),
(98,200,l),
(44,0,l),
(121,0,l),
(175,200,l),
(378,200,l),
(324,0,l,{
name = hr00;
})
);
},
{
closed = 1;
nodes = (
(455,482,l),
(397,269,l),
(194,269,l),
(252,482,l)
);
}
);
width = 650;
}
);
unicode = 35;
},
{
glyphname = slash;
layers = (
{
layerId = m001;
shapes = (
{
closed = 1;
nodes = (
(82,-80,l),
(387,830,l),
(310,830,l),
(5,-80,l,{
name = hr00;
})
);
}
);
width = 392;
}
);
unicode = 47;
},
{
glyphname = backslash;
layers = (
{
layerId = m001;
shapes = (
{
closed = 1;
nodes = (
(5,830,l),
(310,-80,l),
(387,-80,l),
(82,830,l,{
name = hr00;
})
);
}
);
width = 392;
}
);
unicode = 92;
},
{
glyphname = hyphen;
layers = (
{
layerId = m001;
shapes = (
{
closed = 1;
nodes = (
(100,335,l),
(409,335,l),
(409,415,l),
(100,415,l,{
name = hr00;
})
);
}
);
width = 509;
}
);
unicode = 45;
},
{
glyphname = endash;
layers = (
{
layerId = m001;
shapes = (
{
closed = 1;
nodes = (
(100,335,l),
(501,335,l),
(501,415,l),
(100,415,l,{
name = hr00;
})
);
}
);
width = 601;
}
);
unicode = 8211;
},
{
glyphname = emdash;
layers = (
{
layerId = m001;
shapes = (
{
closed = 1;
nodes = (
(100,335,l),
(621,335,l),
(621,415,l),
(100,415,l,{
name = hr00;
})
);
}
);
width = 721;
}
);
unicode = 8212;
},
{
glyphname = underscore;
layers = (
{
layerId = m001;
shapes = (
{
closed = 1;
nodes = (
(50,-80,l),
(571,-80,l),
(571,0,l),
(50,0,l,{
name = hr00;
})
);
}
);
width = 621;
}
);
unicode = 95;
},
{
glyphname = parenleft;
layers = (
{
layerId = m001;
shapes = (
{
closed = 1;
nodes = (
(322,-100,l),
(322,-14,l),
(251,-14,l),
(180,139,l),
(180,611,l),
(252,764,l),
(322,764,l),
(322,850,l),
(192,850,l),
(88,640,l),
(88,110,l),
(192,-100,l,{
name = hr00;
})
);
}
);
width = 352;
}
);
unicode = 40;
},
{
glyphname = parenright;
layers = (
{
layerId = m001;
shapes = (
{
closed = 1;
nodes = (
(264,640,l),
(160,850,l),
(30,850,l),
(30,764,l),
(100,764,l),
(172,611,l),
(172,139,l),
(101,-14,l),
(30,-14,l),
(30,-100,l),
(160,-100,l),
(264,110,l,{
name = hr00;
})
);
}
);
width = 352;
}
);
unicode = 41;
},
{
glyphname = braceleft;
layers = (
{
layerId = m001;
shapes = (
{
closed = 1;
nodes = (
(146,375,l),
(219,442,l),
(197,711,l),
(249,764,l),
(314,764,l),
(314,850,l),
(209,850,l),
(105,740,l),
(127,461,l),
(65,408,l),
(65,342,l),
(127,289,l),
(105,10,l),
(209,-100,l),
(314,-100,l),
(314,-14,l),
(249,-14,l),
(197,39,l),
(219,308,l,{
name = hr00;
})
);
}
);
width = 352;
}
);
unicode = 123;
},
{
glyphname = braceright;
layers = (
{
layerId = m001;
shapes = (
{
closed = 1;
nodes = (
(206,375,l),
(133,308,l),
(155,39,l),
(103,-14,l),
(38,-14,l),
(38,-100,l),
(143,-100,l),
(247,10,l),
(225,289,l),
(287,342,l),
(287,408,l),
(225,461,l),
(247,740,l),
(143,850,l),
(38,850,l),
(38,764,l),
(103,764,l),
(155,711,l),
(133,442,l,{
name = hr00;
})
);
}
);
width = 352;
}
);
unicode = 125;
},
{
glyphname = bracketleft;
layers = (
{
layerId = m001;
shapes = (
{
closed = 1;
nodes = (
(322,-100,l),
(322,-40,l),
(212,-20,l),
(212,770,l),
(322,790,l),
(322,850,l),
(120,850,l),
(120,-100,l,{
name = hr00;
})
);
}
);
width = 352;
}
);
unicode = 91;
},
{
glyphname = bracketright;
layers = (
{
layerId = m001;
shapes = (
{
closed = 1;
nodes = (
(140,-20,l),
(30,-40,l),
(30,-100,l),
(232,-100,l),
(232,850,l),
(30,850,l),
(30,790,l),
(140,770,l,{
name = hr00;
})
);
}
);
width = 352;
}
);
unicode = 93;
},
{
glyphname = quotesinglbase;
layers = (
{
layerId = m001;
shapes = (
{
closed = 1;
nodes = (
(50,-130,l),
(90,-130,l),
(150,30,l),
(150,120,l),
(50,120,l,{
name = hr00;
})
);
}
);
width = 200;
}
);
unicode = 8218;
},
{
glyphname = quotedblbase;
layers = (
{
layerId = m001;
shapes = (
{
closed = 1;
nodes = (
(210,-130,l),
(250,-130,l),
(310,30,l),
(310,120,l),
(210,120,l,{
name = hr00;
})
);
},
{
closed = 1;
nodes = (
(50,-130,l),
(90,-130,l),
(150,30,l),
(150,120,l),
(50,120,l)
);
}
);
width = 360;
}
);
unicode = 8222;
},
{
glyphname = quotedblleft;
layers = (
{
layerId = m001;
shapes = (
{
closed = 1;
nodes = (
(170,800,l),
(130,800,l),
(70,640,l),
(70,550,l),
(170,550,l,{
name = hr00;
})
);
},
{
closed = 1;
nodes = (
(330,800,l),
(290,800,l),
(230,640,l),
(230,550,l),
(330,550,l)
);
}
);
width = 400;
}
);
unicode = 8220;
},
{
glyphname = quotedblright;
layers = (
{
layerId = m001;
shapes = (
{
closed = 1;
nodes = (
(230,550,l),
(270,550,l),
(330,710,l),
(330,800,l),
(230,800,l,{
name = hr00;
})
);
},
{
closed = 1;
nodes = (
(70,550,l),
(110,550,l),
(170,710,l),
(170,800,l),
(70,800,l)
);
}
);
width = 400;
}
);
unicode = 8221;
},
{
glyphname = quoteleft;
layers = (
{
layerId = m001;
shapes = (
{
closed = 1;
nodes = (
(170,800,l),
(130,800,l),
(70,640,l),
(70,550,l),
(170,550,l,{
name = hr00;
})
);
}
);
width = 240;
}
);
unicode = 8216;
},
{
glyphname = quoteright;
layers = (
{
layerId = m001;
shapes = (
{
closed = 1;
nodes = (
(70,550,l),
(110,550,l),
(170,710,l),
(170,800,l),
(70,800,l,{
name = hr00;
})
);
}
);
width = 240;
}
);
unicode = 8217;
},
{
glyphname = guillemetleft;
lastChange = "2024-04-25 10:33:04 +0000";
layers = (
{
layerId = m001;
shapes = (
{
closed = 1;
nodes = (
(234,529,l),
(165,582,l),
(35,408,l),
(35,342,l),
(165,168,l),
(234,221,l),
(122,375,l,{
name = hr00;
})
);
},
{
closed = 1;
nodes = (
(434,529,l),
(365,582,l),
(235,408,l),
(235,342,l),
(365,168,l),
(434,221,l),
(322,375,l)
);
}
);
width = 469;
}
);
unicode = 171;
},
{
glyphname = guillemetright;
lastChange = "2024-04-25 10:33:04 +0000";
layers = (
{
layerId = m001;
shapes = (
{
closed = 1;
nodes = (
(304,168,l),
(434,342,l),
(434,408,l),
(304,582,l),
(235,529,l),
(347,375,l),
(235,221,l,{
name = hr00;
})
);
},
{
closed = 1;
nodes = (
(104,168,l),
(234,342,l),
(234,408,l),
(104,582,l),
(35,529,l),
(147,375,l),
(35,221,l)
);
}
);
width = 469;
}
);
unicode = 187;
},
{
glyphname = guilsinglleft;
layers = (
{
layerId = m001;
shapes = (
{
closed = 1;
nodes = (
(234,529,l),
(165,582,l),
(35,408,l),
(35,342,l),
(165,168,l),
(234,221,l),
(122,375,l,{
name = hr00;
})
);
}
);
width = 269;
}
);
unicode = 8249;
},
{
glyphname = guilsinglright;
layers = (
{
layerId = m001;
shapes = (
{
closed = 1;
nodes = (
(104,168,l),
(234,342,l),
(234,408,l),
(104,582,l),
(35,529,l),
(147,375,l),
(35,221,l,{
name = hr00;
})
);
}
);
width = 269;
}
);
unicode = 8250;
},
{
glyphname = quotedbl;
layers = (
{
layerId = m001;
shapes = (
{
closed = 1;
nodes = (
(70,700,l),
(100,550,l),
(140,550,l),
(170,700,l),
(170,800,l),
(70,800,l,{
name = hr00;
})
);
},
{
closed = 1;
nodes = (
(230,700,l),
(260,550,l),
(300,550,l),
(330,700,l),
(330,800,l),
(230,800,l)
);
}
);
width = 400;
}
);
unicode = 34;
},
{
glyphname = quotesingle;
layers = (
{
layerId = m001;
shapes = (
{
closed = 1;
nodes = (
(70,700,l),
(100,550,l),
(140,550,l),
(170,700,l),
(170,800,l),
(70,800,l,{
name = hr00;
})
);
}
);
width = 240;
}
);
unicode = 39;
},
{
glyphname = florin;
layers = (
{
layerId = m001;
shapes = (
{
closed = 1;
nodes = (
(341,10,l),
(341,334,l),
(486,334,l),
(486,404,l),
(341,404,l),
(341,611,l),
(393,664,l),
(486,664,l),
(546,603,l),
(607,664,l),
(525,750,l),
(353,750,l),
(249,640,l),
(249,404,l),
(117,404,l),
(117,334,l),
(249,334,l),
(249,34,l),
(172,-140,l),
(258,-178,l,{
name = hr00;
})
);
}
);
width = 650;
}
);
unicode = 402;
},
{
glyphname = apple;
lastChange = "2024-04-25 10:33:04 +0000";
layers = (
{
layerId = m001;
shapes = (
{
closed = 1;
nodes = (
(559,-88,o),
(563,-88,o),
(566,-88,cs),
(574,-88,o),
(581,-89,o),
(589,-89,cs),
(615,-89,o),
(617,-70,o),
(634,-60,cs),
(649,-52,o),
(670,-51,o),
(683,-42,cs),
(696,-33,o),
(701,-11,o),
(713,1,cs),
(723,11,o),
(739,12,o),
(748,23,cs),
(759,36,o),
(758,60,o),
(766,74,cs),
(776,91,o),
(800,92,o),
(800,120,cs),
(800,130,o),
(798,141,o),
(798,152,cs),
(798,177,o),
(820,180,o),
(823,200,c),
(823,214,o),
(812,229,o),
(812,244,cs,{
name = hr01;
}),
(812,257,o),
(823,269,o),
(823,283,cs),
(823,305,o),
(799,319,o),
(799,344,cs),
(799,352,o),
(800,360,o),
(800,369,cs,{
name = hr02;
}),
(800,397,o),
(775,400,o),
(764,418,cs),
(758,428,o),
(763,450,o),
(757,460,cs),
(746,479,o),
(720,483,o),
(706,496,cs),
(694,508,o),
(696,526,o),
(683,535,cs),
(669,545,o),
(653,542,o),
(638,550,cs),
(619,560,o),
(617,586,o),
(590,586,cs),
(580,586,o),
(570,583,o),
(562,583,cs),
(538,583,o),
(531,608,o),
(505,608,cs,{
name = hr03;
}),
(491,608,o),
(474,596,o),
(460,596,cs),
(447,596,o),
(429,608,o),
(416,608,cs),
(394,608,o),
(386,585,o),
(361,585,cs),
(352,585,o),
(343,587,o),
(335,587,cs),
(310,586,o),
(303,558,o),
(286,549,cs),
(270,541,o),
(248,543,o),
(235,532,cs),
(224,522,o),
(220,501,o),
(210,491,cs),
(199,480,o),
(178,480,o),
(170,467,cs),
(163,456,o),
(166,435,o),
(159,424,cs),
(149,407,o),
(124,401,o),
(124,376,cs),
(124,368,o),
(125,359,o),
(125,351,cs),
(125,332,o),
(100,311,o),
(100,290,cs,{
name = hr04;
}),
(100,275,o),
(112,265,o),
(112,248,cs,{
name = hr05;
}),
(112,233,o),
(100,218,o),
(100,204,cs,{
name = hr06;
}),
(100,183,o),
(125,168,o),
(125,149,cs),
(125,141,o),
(122,133,o),
(122,124,cs),
(122,98,o),
(148,87,o),
(156,75,cs),
(167,57,o),
(160,46,o),
(171,28,cs),
(181,12,o),
(197,15,o),
(210,4,cs),
(223,-7,o),
(222,-31,o),
(240,-42,cs),
(256,-52,o),
(263,-43,o),
(286,-55,cs),
(299,-62,o),
(311,-91,o),
(337,-91,cs),
(344,-91,o),
(353,-89,o),
(361,-89,cs),
(385,-89,o),
(396,-114,o),
(416,-114,cs),
(431,-114,o),
(446,-102,o),
(462,-102,cs,{
name = hr07;
}),
(477,-102,o),
(493,-112,o),
(508,-112,cs),
(525,-112,o),
(538,-94,o),
(556,-89,cs)
);
},
{
closed = 1;
nodes = (
(517,0,o),
(507,-13,o),
(495,-13,cs,{
name = hr09;
}),
(484,-13,o),
(473,-6,o),
(462,-6,cs),
(450,-6,o),
(438,-15,o),
(426,-15,c),
(412,-13,o),
(405,3,o),
(386,3,cs,{
name = hr10;
}),
(381,3,o),
(376,2,o),
(371,2,cs),
(352,2,o),
(345,23,o),
(334,28,cs),
(317,37,o),
(312,29,o),
(301,37,cs),
(288,45,o),
(289,63,o),
(279,71,cs),
(270,79,o),
(258,77,o),
(251,88,cs),
(243,101,o),
(248,110,o),
(240,123,cs),
(235,132,o),
(215,139,o),
(215,158,cs),
(215,163,o),
(217,169,o),
(217,174,cs),
(217,189,o),
(200,200,o),
(200,215,cs,{
name = hr11;
}),
(200,226,o),
(208,237,o),
(208,248,cs),
(208,260,o),
(200,267,o),
(200,278,cs),
(200,294,o),
(217,308,o),
(217,324,cs),
(217,329,o),
(216,335,o),
(216,340,cs),
(216,359,o),
(235,363,o),
(242,376,cs),
(247,384,o),
(245,399,o),
(250,407,cs),
(257,416,o),
(271,416,o),
(279,424,cs),
(287,432,o),
(289,447,o),
(298,454,cs),
(307,462,o),
(323,460,o),
(334,466,cs),
(347,472,o),
(351,493,o),
(370,493,cs),
(376,493,o),
(381,492,o),
(387,492,cs),
(406,492,o),
(413,509,o),
(429,509,cs,{
name = hr12;
}),
(439,509,o),
(451,500,o),
(461,500,cs),
(471,500,o),
(483,509,o),
(494,509,cs),
(513,509,o),
(516,491,o),
(535,491,cs),
(541,491,o),
(548,493,o),
(555,493,cs,{
name = hr13;
}),
(575,493,o),
(576,474,o),
(589,467,cs),
(601,460,o),
(612,464,o),
(622,456,cs),
(632,449,o),
(630,436,o),
(639,428,cs),
(649,418,o),
(668,415,o),
(676,402,cs),
(680,394,o),
(677,379,o),
(681,371,cs),
(689,357,o),
(707,356,o),
(707,335,cs),
(707,329,o),
(706,323,o),
(706,318,cs),
(706,300,o),
(724,289,o),
(724,273,cs,{
name = hr14;
}),
(724,264,o),
(716,254,o),
(716,245,cs),
(716,234,o),
(724,223,o),
(724,213,c),
(721,199,o),
(706,196,o),
(706,177,cs),
(706,171,o),
(707,164,o),
(707,157,cs,{
name = hr15;
}),
(707,133,o),
(691,136,o),
(683,122,cs),
(677,111,o),
(677,94,o),
(670,84,cs),
(663,76,o),
(651,76,o),
(644,68,cs),
(636,60,o),
(632,45,o),
(622,38,cs),
(613,31,o),
(597,30,o),
(587,24,c),
(575,19,o),
(574,3,o),
(554,3,cs),
(549,3,o),
(544,4,o),
(539,4,cs),
(536,4,o),
(533,4,o),
(530,3,cs)
);
},
{
closed = 1;
nodes = (
(368,417,o),
(292,341,o),
(292,247,cs),
(292,153,o),
(368,77,o),
(462,77,cs),
(556,77,o),
(632,153,o),
(632,247,cs),
(632,341,o),
(556,417,o),
(462,417,cs)
);
},
{
closed = 1;
nodes = (
(505,117,l),
(420,117,l),
(420,292,l),
(366,292,l),
(366,360,l),
(557,360,l),
(557,292,l),
(505,292,l)
);
}
);
width = 923;
}
);
unicode = 63743;
},
{
glyphname = at;
layers = (
{
layerId = m001;
shapes = (
{
closed = 1;
nodes = (
(239,-20,l),
(180,41,l),
(180,609,l),
(239,670,l),
(711,670,l),
(770,608,l),
(770,335,l),
(711,274,l),
(657,274,l),
(554,600,l),
(427,600,l),
(253,50,l),
(345,50,l),
(390,194,l),
(590,194,l),
(636,50,l),
(728,50,l),
(682,194,l),
(746,194,l),
(850,304,l),
(850,640,l),
(746,750,l),
(204,750,l),
(100,640,l),
(100,10,l),
(204,-100,l),
(769,-100,l),
(769,-20,l,{
name = hr00;
})
);
},
{
closed = 1;
nodes = (
(565,274,l),
(416,274,l),
(490,510,l)
);
}
);
width = 950;
}
);
unicode = 64;
},
{
glyphname = ampersand;
layers = (
{
layerId = m001;
shapes = (
{
closed = 1;
nodes = (
(410,664,l),
(473,599,l),
(473,544,l),
(553,544,l),
(553,640,l),
(449,750,l),
(252,750,l),
(148,640,l),
(148,492,l),
(202,415,l),
(100,415,l),
(50,353,l),
(50,110,l),
(154,0,l),
(362,0,l),
(421,101,l),
(492,0,l),
(654,0,l),
(654,80,l),
(547,80,l),
(472,186,l),
(560,335,l),
(617,335,l),
(617,415,l),
(513,415,l),
(422,258,l),
(234,527,l),
(234,605,l),
(290,664,l,{
name = hr00;
})
);
},
{
closed = 1;
nodes = (
(194,86,l),
(136,145,l),
(136,335,l),
(258,335,l),
(372,172,l),
(322,86,l)
);
}
);
width = 674;
}
);
unicode = 38;
},
{
glyphname = paragraph;
layers = (
{
layerId = m001;
shapes = (
{
closed = 1;
nodes = (
(144,750,l),
(40,640,l),
(40,410,l),
(144,300,l),
(382,300,l),
(382,0,l),
(472,-85,l),
(533,-24,l),
(474,33,l),
(474,670,l),
(544,670,l),
(544,750,l,{
name = hr00;
})
);
},
{
closed = 1;
nodes = (
(382,664,l),
(382,386,l),
(183,386,l),
(183,664,l)
);
}
);
width = 614;
}
);
unicode = 182;
},
{
glyphname = section;
layers = (
{
layerId = m001;
shapes = (
{
closed = 1;
nodes = (
(510,357,l),
(409,463,l),
(221,463,l),
(172,513,l),
(172,611,l),
(224,664,l),
(377,664,l),
(437,602,l),
(437,514,l),
(520,514,l),
(520,640,l),
(416,750,l),
(184,750,l),
(80,640,l),
(80,484,l),
(134,427,l),
(100,390,l,{
name = hr01;
}),
(100,284,l),
(202,177,l),
(390,177,l),
(438,128,l),
(438,39,l),
(387,-14,l),
(214,-14,l),
(153,48,l,{
name = hr02;
}),
(153,136,l),
(70,136,l),
(70,10,l),
(174,-100,l),
(426,-100,l),
(530,10,l),
(530,157,l),
(471,218,l),
(510,260,l)
);
},
{
closed = 1;
nodes = (
(418,328,l),
(418,289,l),
(392,263,l),
(241,263,l),
(192,313,l,{
name = hr03;
}),
(192,361,l),
(207,377,l),
(370,377,l)
);
}
);
width = 600;
}
);
unicode = 167;
},
{
glyphname = copyright;
layers = (
{
layerId = m001;
shapes = (
{
closed = 1;
nodes = (
(512,261,l),
(600,353,l),
(600,708,l),
(512,801,l),
(188,801,l),
(100,708,l),
(100,353,l),
(188,261,l,{
name = hr00;
})
);
},
{
closed = 1;
nodes = (
(150,688,l),
(210,751,l),
(489,751,l),
(550,688,l),
(550,374,l),
(491,311,l),
(209,311,l),
(150,374,l)
);
},
{
closed = 1;
nodes = (
(286,446,l),
(286,616,l),
(310,640,l),
(404,640,l),
(436,607,l),
(436,573,l),
(500,573,l),
(500,639,l),
(435,708,l),
(281,708,l),
(216,639,l),
(216,423,l),
(281,354,l),
(435,354,l),
(500,423,l),
(500,488,l),
(436,488,l),
(436,454,l),
(404,422,l),
(310,422,l)
);
}
);
width = 700;
}
);
unicode = 169;
},
{
glyphname = registered;
layers = (
{
layerId = m001;
shapes = (
{
closed = 1;
nodes = (
(512,261,l),
(600,353,l),
(600,708,l),
(512,801,l),
(188,801,l),
(100,708,l),
(100,353,l),
(188,261,l,{
name = hr00;
})
);
},
{
closed = 1;
nodes = (
(150,688,l),
(210,751,l),
(489,751,l),
(550,688,l),
(550,374,l),
(491,311,l),
(209,311,l),
(150,374,l)
);
},
{
closed = 1;
nodes = (
(221,354,l),
(291,354,l),
(291,467,l),
(372,467,l),
(413,408,l),
(413,354,l),
(492,354,l),
(492,418,l),
(444,487,l),
(489,536,l),
(489,639,l),
(425,708,l),
(221,708,l)
);
},
{
closed = 1;
nodes = (
(291,535,l),
(291,640,l),
(396,640,l),
(423,612,l),
(423,563,l),
(395,535,l)
);
}
);
width = 700;
}
);
unicode = 174;
},
{
glyphname = trademark;
layers = (
{
layerId = m001;
shapes = (
{
closed = 1;
nodes = (
(731,388,l),
(873,388,l),
(873,452,l),
(833,452,l),
(833,736,l),
(873,736,l),
(873,800,l),
(749,800,l),
(636,545,l),
(522,800,l),
(400,800,l),
(400,736,l),
(441,736,l),
(441,452,l),
(400,452,l),
(400,388,l),
(542,388,l),
(542,452,l),
(511,452,l),
(511,670,l),
(604,454,l),
(669,454,l),
(761,670,l),
(761,452,l),
(731,452,l,{
name = hr00;
})
);
},
{
closed = 1;
nodes = (
(288,452,l),
(230,452,l),
(230,736,l),
(298,736,l),
(298,668,l),
(360,668,l),
(360,800,l),
(30,800,l),
(30,668,l),
(91,668,l),
(91,736,l),
(159,736,l),
(159,452,l),
(101,452,l),
(101,388,l),
(288,388,l)
);
}
);
width = 923;
}
);
unicode = 8482;
},
{
glyphname = degree;
layers = (
{
layerId = m001;
shapes = (
{
closed = 1;
nodes = (
(287,500,l),
(351,569,l),
(351,732,l),
(287,801,l),
(115,801,l),
(50,732,l),
(50,569,l),
(115,500,l,{
name = hr00;
})
);
},
{
closed = 1;
nodes = (
(118,595,l),
(118,706,l),
(145,733,l),
(257,733,l),
(284,706,l),
(284,595,l),
(257,568,l),
(145,568,l)
);
}
);
width = 401;
}
);
unicode = 176;
},
{
glyphname = bar;
layers = (
{
layerId = m001;
shapes = (
{
closed = 1;
nodes = (
(197,-80,l),
(197,830,l),
(120,830,l),
(120,-80,l,{
name = hr00;
})
);
}
);
width = 317;
}
);
unicode = 124;
},
{
glyphname = brokenbar;
layers = (
{
layerId = m001;
shapes = (
{
closed = 1;
nodes = (
(197,520,l),
(197,830,l),
(120,830,l),
(120,520,l,{
name = hr00;
})
);
},
{
closed = 1;
nodes = (
(197,-80,l),
(197,230,l),
(120,230,l),
(120,-80,l)
);
}
);
width = 317;
}
);
unicode = 166;
},
{
glyphname = dagger;
layers = (
{
layerId = m001;
shapes = (
{
closed = 1;
nodes = (
(150,500,l),
(255,524,l),
(230,400,l),
(230,-100,l),
(330,-100,l),
(330,400,l),
(305,524,l),
(410,500,l),
(510,500,l),
(510,600,l),
(410,600,l),
(305,576,l),
(330,700,l),
(330,800,l),
(230,800,l),
(230,700,l),
(255,576,l),
(150,600,l),
(50,600,l),
(50,500,l,{
name = hr00;
})
);
}
);
width = 560;
}
);
unicode = 8224;
},
{
glyphname = daggerdbl;
layers = (
{
layerId = m001;
shapes = (
{
closed = 1;
nodes = (
(150,500,l),
(255,524,l),
(230,400,l),
(230,300,l),
(255,176,l),
(150,200,l),
(50,200,l),
(50,100,l),
(150,100,l),
(255,124,l),
(230,0,l),
(230,-100,l),
(330,-100,l),
(330,0,l),
(305,124,l),
(410,100,l),
(510,100,l),
(510,200,l),
(410,200,l),
(305,176,l),
(330,300,l),
(330,400,l),
(305,524,l),
(410,500,l),
(510,500,l),
(510,600,l),
(410,600,l),
(305,576,l),
(330,700,l),
(330,800,l),
(230,800,l),
(230,700,l),
(255,576,l),
(150,600,l),
(50,600,l),
(50,500,l,{
name = hr00;
})
);
}
);
width = 560;
}
);
unicode = 8225;
},
{
glyphname = estimated;
layers = (
{
layerId = m001;
shapes = (
{
closed = 1;
nodes = (
(157,78,l),
(198,39,o),
(247,19,o),
(302,19,cs),
(385,19,o),
(449,59,o),
(495,139,c),
(530,118,l),
(461,26,o),
(409,-17,o),
(302,-17,cs),
(138,-17,o),
(44,107,o),
(44,259,cs),
(44,422,o),
(142,535,o),
(302,535,cs),
(473,535,o),
(554,413,o),
(561,259,c),
(157,259,l,{
name = hr00;
})
);
},
{
closed = 1;
nodes = (
(448,440,l),
(406,480,o),
(357,500,o),
(301,500,cs),
(244,500,o),
(196,480,o),
(157,440,c),
(157,295,l),
(448,295,l)
);
}
);
width = 600;
}
);
unicode = 8494;
},
{
glyphname = cent;
layers = (
{
layerId = m001;
shapes = (
{
closed = 1;
nodes = (
(383,1,l),
(383,100,l),
(496,100,l),
(581,190,l),
(520,251,l),
(456,186,l),
(383,186,l),
(383,564,l),
(457,564,l),
(520,499,l),
(581,560,l),
(496,650,l),
(383,650,l),
(383,751,l),
(313,751,l),
(313,650,l),
(204,650,l),
(100,540,l),
(100,210,l),
(204,100,l),
(313,100,l),
(313,1,l,{
name = hr00;
})
);
},
{
closed = 1;
nodes = (
(192,239,l),
(192,511,l),
(244,564,l),
(313,564,l),
(313,186,l),
(243,186,l)
);
}
);
width = 650;
}
);
unicode = 162;
},
{
glyphname = currency;
layers = (
{
layerId = m001;
shapes = (
{
closed = 1;
nodes = (
(490,198,l),
(531,244,l),
(531,576,l),
(490,622,l),
(152,622,l),
(110,576,l),
(110,244,l),
(152,198,l,{
name = hr00;
})
);
},
{
closed = 1;
nodes = (
(187,302,l),
(187,518,l),
(215,545,l),
(427,545,l),
(454,518,l),
(454,302,l),
(427,275,l),
(215,275,l)
);
},
{
closed = 1;
nodes = (
(191,231,l),
(142,281,l),
(0,139,l),
(49,89,l)
);
},
{
closed = 1;
nodes = (
(499,281,l),
(450,231,l),
(592,89,l),
(641,139,l)
);
},
{
closed = 1;
nodes = (
(142,538,l),
(191,588,l),
(49,730,l),
(0,680,l)
);
},
{
closed = 1;
nodes = (
(450,588,l),
(499,538,l),
(641,680,l),
(592,730,l)
);
}
);
width = 641;
}
);
unicode = 164;
},
{
glyphname = dollar;
layers = (
{
layerId = m001;
shapes = (
{
closed = 1;
nodes = (
(507,603,l),
(568,664,l),
(486,750,l),
(370,750,l),
(370,850,l),
(300,850,l),
(300,750,l),
(204,750,l),
(100,640,l),
(100,444,l),
(202,337,l),
(300,337,l),
(300,86,l),
(204,86,l),
(143,147,l),
(82,86,l),
(164,0,l),
(300,0,l),
(300,-100,l),
(370,-100,l),
(370,0,l),
(466,0,l),
(570,110,l),
(570,317,l),
(469,423,l),
(370,423,l),
(370,664,l),
(447,664,l,{
name = hr00;
})
);
},
{
closed = 1;
nodes = (
(478,288,l),
(478,139,l),
(427,86,l),
(370,86,l),
(370,337,l),
(430,337,l)
);
},
{
closed = 1;
nodes = (
(192,611,l),
(244,664,l),
(300,664,l),
(300,423,l),
(241,423,l),
(192,473,l)
);
}
);
width = 650;
}
);
unicode = 36;
},
{
glyphname = euro;
lastChange = "2024-04-25 10:33:04 +0000";
layers = (
{
layerId = m001;
shapes = (
{
closed = 1;
nodes = (
(72,430,l),
(130,430,l),
(130,320,l),
(72,320,l),
(72,250,l),
(130,250,l),
(130,110,l),
(234,0,l),
(506,0,l),
(591,90,l),
(530,151,l),
(466,86,l),
(273,86,l),
(222,139,l),
(222,250,l),
(498,250,l),
(498,320,l),
(222,320,l),
(222,430,l),
(498,430,l),
(498,500,l),
(222,500,l),
(222,611,l),
(274,664,l),
(467,664,l),
(530,600,l),
(591,661,l),
(506,750,l),
(234,750,l),
(130,640,l),
(130,500,l),
(72,500,l,{
name = hr00;
})
);
}
);
width = 650;
}
);
unicode = 8364;
},
{
glyphname = lira;
layers = (
{
layerId = m001;
shapes = (
{
closed = 1;
nodes = (
(109,80,l),
(79,80,l),
(79,0,l),
(565,0,l),
(565,156,l),
(485,156,l),
(485,80,l),
(203,80,l),
(251,188,l),
(251,611,l),
(303,664,l),
(436,664,l),
(496,603,l),
(557,664,l),
(475,750,l),
(263,750,l),
(159,640,l),
(159,192,l,{
name = hr00;
})
);
},
{
closed = 1;
nodes = (
(101,430,l),
(527,430,l),
(527,500,l),
(101,500,l)
);
},
{
closed = 1;
nodes = (
(101,250,l),
(527,250,l),
(527,320,l),
(101,320,l)
);
}
);
width = 650;
}
);
unicode = 8356;
},
{
glyphname = sterling;
layers = (
{
layerId = m001;
shapes = (
{
closed = 1;
nodes = (
(97,334,l),
(159,334,l),
(159,192,l),
(109,80,l),
(79,80,l),
(79,0,l),
(565,0,l),
(565,196,l),
(485,196,l),
(485,80,l),
(203,80,l),
(251,188,l),
(251,334,l),
(466,334,l),
(466,404,l),
(251,404,l),
(251,611,l),
(303,664,l),
(436,664,l),
(496,603,l),
(557,664,l),
(475,750,l),
(263,750,l),
(159,640,l),
(159,404,l),
(97,404,l,{
name = hr00;
})
);
}
);
width = 650;
}
);
unicode = 163;
},
{
glyphname = yen;
layers = (
{
layerId = m001;
shapes = (
{
closed = 1;
nodes = (
(462,80,l),
(372,80,l),
(372,224,l),
(579,224,l),
(579,294,l),
(395,294,l),
(440,404,l),
(579,404,l),
(579,474,l),
(469,474,l),
(550,670,l),
(609,670,l),
(609,750,l),
(397,750,l),
(397,670,l),
(462,670,l),
(325,338,l),
(189,670,l),
(254,670,l),
(254,750,l),
(42,750,l),
(42,670,l),
(101,670,l),
(181,474,l),
(72,474,l),
(72,404,l),
(210,404,l),
(255,294,l),
(72,294,l),
(72,224,l),
(280,224,l),
(280,80,l),
(190,80,l),
(190,0,l),
(462,0,l,{
name = hr00;
})
);
}
);
width = 650;
}
);
unicode = 165;
},
{
glyphname = plus;
layers = (
{
layerId = m001;
shapes = (
{
closed = 1;
nodes = (
(365,165,l),
(365,335,l),
(535,335,l),
(535,415,l),
(365,415,l),
(365,585,l),
(285,585,l),
(285,415,l),
(115,415,l),
(115,335,l),
(285,335,l),
(285,165,l,{
name = hr00;
})
);
}
);
width = 650;
}
);
unicode = 43;
},
{
glyphname = minus;
layers = (
{
layerId = m001;
shapes = (
{
closed = 1;
nodes = (
(115,335,l),
(535,335,l),
(535,415,l),
(115,415,l,{
name = hr00;
})
);
}
);
width = 650;
}
);
unicode = 8722;
},
{
glyphname = multiply;
layers = (
{
layerId = m001;
shapes = (
{
closed = 1;
nodes = (
(531,225,l),
(381,375,l),
(531,525,l),
(475,581,l),
(325,431,l),
(175,581,l),
(119,525,l),
(269,375,l),
(119,225,l),
(175,169,l),
(325,319,l),
(475,169,l,{
name = hr00;
})
);
}
);
width = 650;
}
);
unicode = 215;
},
{
glyphname = divide;
layers = (
{
layerId = m001;
shapes = (
{
closed = 1;
nodes = (
(115,335,l),
(535,335,l),
(535,415,l),
(115,415,l,{
name = hr00;
})
);
},
{
closed = 1;
nodes = (
(275,515,l),
(375,515,l),
(375,635,l),
(275,635,l)
);
},
{
closed = 1;
nodes = (
(275,115,l),
(375,115,l),
(375,235,l),
(275,235,l)
);
}
);
width = 650;
}
);
unicode = 247;
},
{
glyphname = equal;
layers = (
{
layerId = m001;
shapes = (
{
closed = 1;
nodes = (
(115,455,l),
(535,455,l),
(535,535,l),
(115,535,l,{
name = hr00;
})
);
},
{
closed = 1;
nodes = (
(115,215,l),
(535,215,l),
(535,295,l),
(115,295,l)
);
}
);
width = 650;
}
);
unicode = 61;
},
{
glyphname = notequal;
layers = (
{
layerId = m001;
shapes = (
{
closed = 1;
nodes = (
(115,215,l),
(233,215,l),
(134,-80,l),
(211,-80,l),
(309,215,l),
(535,215,l),
(535,295,l),
(336,295,l),
(390,455,l),
(535,455,l),
(535,535,l),
(417,535,l),
(516,830,l),
(439,830,l),
(340,535,l),
(115,535,l),
(115,455,l),
(313,455,l),
(260,295,l),
(115,295,l,{
name = hr00;
})
);
}
);
width = 650;
}
);
unicode = 8800;
},
{
glyphname = greater;
layers = (
{
layerId = m001;
shapes = (
{
closed = 1;
nodes = (
(115,135,l),
(535,335,l),
(535,415,l),
(115,615,l),
(115,535,l),
(451,375,l),
(115,215,l,{
name = hr00;
})
);
}
);
width = 650;
}
);
unicode = 62;
},
{
glyphname = less;
layers = (
{
layerId = m001;
shapes = (
{
closed = 1;
nodes = (
(115,335,l),
(535,135,l),
(535,215,l),
(199,375,l),
(535,535,l),
(535,615,l),
(115,415,l,{
name = hr00;
})
);
}
);
width = 650;
}
);
unicode = 60;
},
{
glyphname = greaterequal;
layers = (
{
layerId = m001;
shapes = (
{
closed = 1;
nodes = (
(115,135,l),
(535,335,l),
(535,415,l),
(115,615,l),
(115,535,l),
(451,375,l),
(115,215,l,{
name = hr00;
})
);
},
{
closed = 1;
nodes = (
(115,0,l),
(535,0,l),
(535,80,l),
(115,80,l)
);
}
);
width = 650;
}
);
unicode = 8805;
},
{
glyphname = lessequal;
layers = (
{
layerId = m001;
shapes = (
{
closed = 1;
nodes = (
(115,335,l),
(535,135,l),
(535,215,l),
(199,375,l),
(535,535,l),
(535,615,l),
(115,415,l,{
name = hr00;
})
);
},
{
closed = 1;
nodes = (
(115,0,l),
(535,0,l),
(535,80,l),
(115,80,l)
);
}
);
width = 650;
}
);
unicode = 8804;
},
{
glyphname = plusminus;
layers = (
{
layerId = m001;
shapes = (
{
closed = 1;
nodes = (
(365,165,l),
(365,335,l),
(535,335,l),
(535,415,l),
(365,415,l),
(365,585,l),
(285,585,l),
(285,415,l),
(115,415,l),
(115,335,l),
(285,335,l),
(285,165,l,{
name = hr00;
})
);
},
{
closed = 1;
nodes = (
(115,0,l),
(535,0,l),
(535,80,l),
(115,80,l)
);
}
);
width = 650;
}
);
unicode = 177;
},
{
glyphname = approxequal;
layers = (
{
layerId = m001;
shapes = (
{
closed = 1;
nodes = (
(115,445,l),
(141,417,o),
(176,407,o),
(212,407,cs),
(299,407,o),
(346,480,o),
(432,480,cs,{
name = hr01;
}),
(469,480,o),
(506,468,o),
(535,445,c),
(535,525,l),
(505,548,o),
(467,560,o),
(429,560,cs),
(345,560,o),
(297,487,o),
(212,487,cs,{
name = hr02;
}),
(176,487,o),
(140,498,o),
(115,525,c)
);
},
{
closed = 1;
nodes = (
(115,225,l),
(140,196,o),
(176,186,o),
(213,186,cs),
(300,186,o),
(347,265,o),
(432,265,cs),
(469,265,o),
(507,251,o),
(535,225,c),
(535,305,l),
(506,331,o),
(468,344,o),
(430,344,cs,{
name = hr03;
}),
(345,344,o),
(299,265,o),
(212,265,cs),
(176,265,o),
(140,278,o),
(115,305,c)
);
}
);
width = 650;
}
);
unicode = 8776;
},
{
glyphname = asciitilde;
layers = (
{
layerId = m001;
shapes = (
{
closed = 1;
nodes = (
(509,309,l),
(565,407,l),
(490,450,l),
(454,387,l),
(409,375,l),
(261,461,l),
(141,433,l),
(85,335,l),
(160,292,l),
(196,355,l),
(241,367,l),
(389,281,l,{
name = hr00;
})
);
}
);
width = 650;
}
);
unicode = 126;
},
{
glyphname = logicalnot;
layers = (
{
layerId = m001;
shapes = (
{
closed = 1;
nodes = (
(115,335,l),
(463,335,l),
(463,186,l),
(535,186,l),
(535,415,l),
(115,415,l,{
name = hr00;
})
);
}
);
width = 650;
}
);
unicode = 172;
},
{
glyphname = asciicircum;
layers = (
{
layerId = m001;
shapes = (
{
closed = 1;
nodes = (
(285,750,l),
(145,499,l),
(225,499,l),
(325,678,l),
(425,499,l),
(505,499,l),
(365,750,l,{
name = hr00;
})
);
}
);
width = 650;
}
);
unicode = 94;
},
{
glyphname = infinity;
layers = (
{
layerId = m001;
shapes = (
{
closed = 1;
nodes = (
(690,150,l),
(800,254,l),
(800,496,l),
(690,600,l),
(503,600,l),
(419,457,l),
(336,600,l),
(160,600,l),
(50,496,l),
(50,254,l),
(160,150,l),
(336,150,l),
(419,292,l),
(503,150,l,{
name = hr00;
})
);
},
{
closed = 1;
nodes = (
(468,375,l),
(552,518,l),
(661,518,l),
(714,467,l),
(714,284,l),
(661,232,l),
(552,232,l)
);
},
{
closed = 1;
nodes = (
(371,375,l),
(287,232,l),
(189,232,l),
(136,284,l),
(136,466,l),
(189,518,l),
(287,518,l)
);
}
);
width = 850;
}
);
unicode = 8734;
},
{
glyphname = integral;
layers = (
{
layerId = m001;
shapes = (
{
closed = 1;
nodes = (
(289,750,l),
(382,750,l),
(382,836,l),
(249,836,l),
(145,726,l),
(145,-47,l),
(93,-100,l),
(0,-100,l),
(0,-186,l),
(133,-186,l),
(237,-76,l),
(237,697,l,{
name = hr00;
})
);
}
);
width = 382;
}
);
unicode = 8747;
},
{
glyphname = Ohm;
lastChange = "2024-04-25 10:33:04 +0000";
layers = (
{
layerId = m001;
shapes = (
{
closed = 1;
nodes = (
(260,180,l),
(260,80,l),
(80,80,l),
(80,0,l),
(342,0,l),
(342,256,l),
(250,256,l),
(189,319,l),
(189,611,l),
(241,664,l),
(564,664,l),
(615,611,l),
(615,319,l),
(553,256,l),
(461,256,l),
(461,0,l),
(723,0,l),
(723,80,l),
(543,80,l),
(543,180,l),
(603,180,l),
(707,290,l),
(707,640,l),
(603,750,l),
(201,750,l),
(97,640,l),
(97,290,l),
(201,180,l,{
name = hr00;
})
);
}
);
width = 803;
}
);
unicode = 8486;
},
{
glyphname = increment;
lastChange = "2024-04-25 10:33:04 +0000";
layers = (
{
layerId = m001;
shapes = (
{
closed = 1;
nodes = (
(40,0,l),
(667,0,l),
(667,80,l),
(417,750,l),
(290,750,l),
(40,80,l,{
name = hr00;
})
);
},
{
closed = 1;
nodes = (
(132,80,l),
(353,673,l),
(575,80,l)
);
}
);
width = 707;
}
);
unicode = 8710;
},
{
glyphname = product;
layers = (
{
layerId = m001;
shapes = (
{
closed = 1;
nodes = (
(252,-100,l),
(252,670,l),
(510,670,l),
(510,-100,l),
(602,-100,l),
(602,670,l),
(682,670,l),
(682,750,l),
(80,750,l),
(80,670,l),
(160,670,l),
(160,-100,l,{
name = hr00;
})
);
}
);
width = 762;
}
);
unicode = 8719;
},
{
glyphname = summation;
layers = (
{
layerId = m001;
shapes = (
{
closed = 1;
nodes = (
(90,-100,l),
(592,-100,l),
(592,-20,l),
(194,-20,l),
(414,324,l),
(194,670,l),
(592,670,l),
(592,750,l),
(90,750,l),
(90,670,l),
(310,324,l),
(90,-20,l,{
name = hr00;
})
);
}
);
width = 622;
}
);
unicode = 8721;
},
{
glyphname = radical;
layers = (
{
layerId = m001;
shapes = (
{
closed = 1;
nodes = (
(40,282,l),
(180,-100,l),
(319,-100,l),
(532,780,l),
(672,780,l),
(672,850,l),
(459,850,l),
(245,-32,l),
(120,311,l,{
name = hr00;
})
);
}
);
width = 622;
}
);
unicode = 8730;
},
{
glyphname = partialdiff;
layers = (
{
layerId = m001;
shapes = (
{
closed = 1;
nodes = (
(331,613,l),
(450,651,l),
(470,582,l),
(461,493,l),
(178,493,l),
(74,383,l),
(52,110,l),
(156,0,l),
(416,0,l),
(520,110,l),
(565,586,l),
(536,679,l),
(640,713,l),
(640,783,l),
(516,743,l),
(487,838,l),
(405,813,l),
(432,716,l),
(331,683,l,{
name = hr00;
})
);
},
{
closed = 1;
nodes = (
(195,86,l),
(144,139,l),
(166,354,l),
(218,407,l),
(453,407,l),
(428,139,l),
(376,86,l)
);
}
);
width = 650;
}
);
unicode = 8706;
},
{
glyphname = micro;
lastChange = "2024-04-25 10:33:04 +0000";
layers = (
{
layerId = m001;
shapes = (
{
closed = 1;
nodes = (
(222,-180,l),
(222,0,l),
(506,0,l),
(610,110,l),
(610,650,l),
(518,650,l),
(518,139,l),
(466,86,l),
(222,86,l),
(222,650,l),
(130,650,l),
(130,-180,l,{
name = hr00;
})
);
}
);
width = 740;
}
);
unicode = 181;
},
{
glyphname = percent;
layers = (
{
layerId = m001;
shapes = (
{
closed = 1;
nodes = (
(806,0,l),
(870,69,l),
(870,383,l),
(806,452,l),
(634,452,l),
(569,383,l),
(569,69,l),
(634,0,l,{
name = hr00;
})
);
},
{
closed = 1;
nodes = (
(637,95,l),
(637,357,l),
(664,384,l),
(776,384,l),
(803,357,l),
(803,95,l),
(776,68,l),
(664,68,l)
);
},
{
closed = 1;
nodes = (
(307,298,l),
(371,367,l),
(371,681,l),
(307,750,l),
(135,750,l),
(70,681,l),
(70,367,l),
(135,298,l)
);
},
{
closed = 1;
nodes = (
(138,393,l),
(138,655,l),
(165,682,l),
(277,682,l),
(304,655,l),
(304,393,l),
(277,366,l),
(165,366,l)
);
},
{
closed = 1;
nodes = (
(356,-35,l),
(661,784,l),
(584,784,l),
(279,-35,l)
);
}
);
width = 940;
}
);
unicode = 37;
},
{
glyphname = perthousand;
layers = (
{
layerId = m001;
shapes = (
{
closed = 1;
nodes = (
(1178,0,l),
(1242,69,l),
(1242,383,l),
(1178,452,l),
(1006,452,l),
(941,383,l),
(941,69,l),
(1006,0,l,{
name = hr00;
})
);
},
{
closed = 1;
nodes = (
(1009,95,l),
(1009,357,l),
(1036,384,l),
(1148,384,l),
(1175,357,l),
(1175,95,l),
(1148,68,l),
(1036,68,l)
);
},
{
closed = 1;
nodes = (
(307,298,l),
(371,367,l),
(371,681,l),
(307,750,l),
(135,750,l),
(70,681,l),
(70,367,l),
(135,298,l)
);
},
{
closed = 1;
nodes = (
(138,393,l),
(138,655,l),
(165,682,l),
(277,682,l),
(304,655,l),
(304,393,l),
(277,366,l),
(165,366,l)
);
},
{
closed = 1;
nodes = (
(806,0,l),
(870,69,l),
(870,383,l),
(806,452,l),
(634,452,l),
(569,383,l),
(569,69,l),
(634,0,l)
);
},
{
closed = 1;
nodes = (
(637,95,l),
(637,357,l),
(664,384,l),
(776,384,l),
(803,357,l),
(803,95,l),
(776,68,l),
(664,68,l)
);
},
{
closed = 1;
nodes = (
(356,-35,l),
(661,784,l),
(584,784,l),
(279,-35,l)
);
}
);
width = 1312;
}
);
unicode = 8240;
},
{
glyphname = lozenge;
layers = (
{
layerId = m001;
shapes = (
{
closed = 1;
nodes = (
(290,836,l),
(40,325,l),
(290,-186,l),
(417,-186,l),
(667,325,l),
(417,836,l,{
name = hr00;
})
);
},
{
closed = 1;
nodes = (
(353,777,l),
(575,325,l),
(353,-127,l),
(132,325,l)
);
}
);
width = 707;
}
);
unicode = 9674;
},
{
glyphname = commaaccentcomb;
lastChange = "2024-04-25 10:33:04 +0000";
layers = (
{
layerId = m001;
shapes = (
{
closed = 1;
nodes = (
(55,-280,l),
(85,-280,l),
(145,-160,l),
(145,-70,l),
(55,-70,l,{
name = hr00;
})
);
}
);
width = 200;
}
);
unicode = 806;
},
{
glyphname = dieresis;
layers = (
{
layerId = m001;
shapes = (
{
closed = 1;
nodes = (
(155,711,l),
(155,812,l),
(63,812,l),
(63,711,l,{
name = hr00;
})
);
},
{
closed = 1;
nodes = (
(334,711,l),
(334,812,l),
(242,812,l),
(242,711,l)
);
}
);
width = 397;
}
);
unicode = 168;
},
{
glyphname = dotaccent;
layers = (
{
layerId = m001;
shapes = (
{
closed = 1;
nodes = (
(159,711,l),
(159,812,l),
(58,812,l),
(58,711,l,{
name = hr00;
})
);
}
);
width = 217;
}
);
unicode = 729;
},
{
glyphname = grave;
layers = (
{
layerId = m001;
shapes = (
{
closed = 1;
nodes = (
(208,711,l),
(340,711,l),
(353,749,l),
(159,826,l),
(130,743,l,{
name = hr00;
})
);
}
);
width = 423;
}
);
unicode = 96;
},
{
glyphname = acute;
layers = (
{
layerId = m001;
shapes = (
{
closed = 1;
nodes = (
(130,749,l),
(143,711,l),
(275,711,l),
(353,743,l),
(324,826,l,{
name = hr00;
})
);
}
);
width = 423;
}
);
unicode = 180;
},
{
glyphname = hungarumlaut;
layers = (
{
layerId = m001;
shapes = (
{
closed = 1;
nodes = (
(160,749,l),
(173,711,l),
(275,711,l),
(351,749,l),
(315,821,l,{
name = hr00;
})
);
},
{
closed = 1;
nodes = (
(381,749,l),
(394,711,l),
(496,711,l),
(572,749,l),
(536,821,l)
);
}
);
width = 602;
}
);
unicode = 733;
},
{
glyphname = circumflex;
layers = (
{
layerId = m001;
shapes = (
{
closed = 1;
nodes = (
(60,739,l),
(73,711,l),
(155,711,l),
(198,760,l),
(242,711,l),
(324,711,l),
(337,739,l),
(248,816,l),
(149,816,l,{
name = hr00;
})
);
}
);
width = 397;
}
);
unicode = 710;
},
{
glyphname = caron;
layers = (
{
layerId = m001;
shapes = (
{
closed = 1;
nodes = (
(337,788,l),
(324,816,l),
(242,816,l),
(198,767,l),
(155,816,l),
(73,816,l),
(60,788,l),
(149,711,l),
(248,711,l,{
name = hr00;
})
);
}
);
width = 397;
}
);
unicode = 711;
},
{
glyphname = breve;
layers = (
{
layerId = m001;
shapes = (
{
closed = 1;
nodes = (
(139,816,l),
(60,816,l),
(60,748,l),
(95,711,l),
(262,711,l),
(297,748,l),
(297,816,l),
(218,816,l),
(218,772,l),
(139,772,l,{
name = hr00;
})
);
}
);
width = 357;
}
);
unicode = 728;
},
{
glyphname = ring;
layers = (
{
layerId = m001;
shapes = (
{
closed = 1;
nodes = (
(176,693,l),
(215,734,l),
(215,820,l),
(176,861,l),
(81,861,l),
(42,820,l),
(42,734,l),
(81,693,l,{
name = hr00;
})
);
},
{
closed = 1;
nodes = (
(94,812,l),
(163,812,l),
(163,742,l),
(94,742,l)
);
}
);
width = 257;
}
);
unicode = 730;
},
{
glyphname = tilde;
layers = (
{
layerId = m001;
shapes = (
{
closed = 1;
nodes = (
(343,788,l),
(330,816,l),
(258,816,l),
(226,788,l),
(169,816,l),
(143,816,l),
(65,739,l),
(78,711,l),
(150,711,l),
(182,739,l),
(239,711,l),
(265,711,l,{
name = hr00;
})
);
}
);
width = 388;
}
);
unicode = 732;
},
{
glyphname = macron;
layers = (
{
layerId = m001;
shapes = (
{
closed = 1;
nodes = (
(293,711,l),
(293,800,l),
(50,800,l),
(50,711,l,{
name = hr00;
})
);
}
);
width = 343;
}
);
unicode = 175;
},
{
glyphname = cedilla;
layers = (
{
layerId = m001;
shapes = (
{
closed = 1;
nodes = (
(40,-150,l),
(90,-150,l),
(160,0,l),
(60,0,l,{
name = hr00;
})
);
}
);
width = 200;
}
);
unicode = 184;
},
{
glyphname = ogonek;
layers = (
{
layerId = m001;
shapes = (
{
closed = 1;
nodes = (
(171,-173,l),
(269,-173,l),
(340,-93,l),
(291,-50,l),
(237,-110,l),
(209,-110,l),
(165,-64,l),
(221,0,l),
(133,0,l),
(100,-38,l),
(100,-98,l,{
name = hr00;
})
);
}
);
width = 406;
}
);
unicode = 731;
},
{
glyphname = barra;
lastChange = "2024-04-25 10:33:04 +0000";
layers = (
{
layerId = m001;
shapes = (
{
closed = 1;
nodes = (
(382,367,l),
(0,367,l),
(0,297,l),
(382,297,l,{
name = hr00;
})
);
}
);
width = 382;
}
);
},
{
glyphname = ringacute;
lastChange = "2024-04-25 10:33:04 +0000";
layers = (
{
layerId = m001;
shapes = (
{
closed = 1;
nodes = (
(42,734,l),
(81,693,l),
(176,693,l),
(215,734,l),
(215,840,l),
(186,861,l),
(81,861,l),
(42,820,l,{
name = hr00;
})
);
},
{
closed = 1;
nodes = (
(94,812,l),
(163,812,l),
(163,742,l),
(94,742,l)
);
},
{
closed = 1;
nodes = (
(158,839,l),
(175,809,l),
(242,836,l),
(285,874,l),
(246,923,l)
);
}
